<?xml version="1.0" standalone="no"?>
<!DOCTYPE svg PUBLIC "-//W3C//DTD SVG 20010904//EN"
 "http://www.w3.org/TR/2001/REC-SVG-20010904/DTD/svg10.dtd">
<svg version="1.0" xmlns="http://www.w3.org/2000/svg"
 width="5001.000000pt" height="2917.000000pt" viewBox="0 0 5001.000000 2917.000000"
 preserveAspectRatio="xMidYMid meet">

<g transform="translate(0.000000,2917.000000) scale(0.100000,-0.100000)"
fill="#000000" stroke="none">
<path d="M31382 29161 c1 -5 51 -41 110 -81 348 -235 708 -585 948 -920 735
-1027 861 -2365 331 -3527 -271 -597 -724 -1130 -1276 -1502 -587 -396 -1257
-630 -2055 -718 -206 -22 -916 -26 -1125 -5 -500 49 -822 108 -1460 266 -187
46 -439 108 -560 136 -235 56 -494 127 -690 190 -139 44 -167 51 -375 86 -294
49 -646 132 -1016 238 -106 30 -244 64 -309 76 -342 62 -690 150 -1115 283
-86 27 -202 54 -285 67 -931 145 -1887 489 -2825 1015 -451 254 -764 451
-1840 1165 -1878 1245 -2392 1539 -3140 1800 -91 32 -200 67 -243 79 l-77 22
-208 -26 c-1423 -179 -2642 -681 -3582 -1473 -258 -218 -570 -550 -775 -827
-368 -495 -646 -1077 -805 -1689 -205 -787 -238 -1547 -110 -2566 290 -2314
145 -4370 -432 -6130 -787 -2402 -2323 -4047 -4459 -4775 -850 -289 -1785
-435 -2794 -435 -337 0 -651 16 -1128 56 l-77 7 0 -4982 0 -4981 1597 0 1596
0 -134 88 c-628 413 -1206 987 -1595 1583 -489 750 -767 1571 -835 2469 -17
227 -6 716 20 943 123 1034 532 1988 1195 2785 142 172 461 496 626 639 907
780 2076 1275 3405 1442 387 49 505 55 1050 56 529 0 632 -4 1035 -46 578 -59
1033 -143 1930 -359 696 -167 862 -208 1079 -270 118 -33 296 -76 395 -96 657
-130 1202 -275 1841 -488 l370 -124 180 -22 c727 -87 1532 -269 2314 -525 213
-69 251 -79 439 -106 1315 -191 2653 -637 3933 -1309 756 -397 1391 -784 2704
-1650 1665 -1097 2160 -1414 2935 -1877 776 -463 1118 -640 1677 -863 259
-104 805 -290 852 -290 98 0 753 95 1066 155 1605 308 3036 915 4175 1771
2158 1623 3184 4058 2955 7014 -19 244 -35 393 -85 785 -330 2595 -281 4987
146 7135 695 3491 2326 6163 4754 7785 1545 1033 3357 1623 5460 1779 366 28
626 36 1110 36 604 0 1053 -20 1584 -70 115 -11 213 -17 218 -12 5 5 7 186 6
403 l-3 394 -9313 3 c-5400 1 -9312 -2 -9310 -7z"/>
</g>
</svg>
