<svg version="1.1" id="Layer_1" xmlns="http://www.w3.org/2000/svg" xmlns:xlink="http://www.w3.org/1999/xlink" x="0px" y="0px"
	 width="100%" viewBox="0 0 720 432" enable-background="new 0 0 720 432" xml:space="preserve">
<path fill="#F1F2F2" opacity="1.000000" stroke="none" 
	d="
M721.000000,117.000015 
	C721.000000,178.687561 721.000000,240.375122 720.616943,302.539642 
	C719.132629,304.191895 717.530212,305.183136 717.018982,306.575134 
	C715.054810,311.922729 712.488708,313.773621 706.706116,314.075348 
	C704.302063,314.200745 701.207275,314.402527 699.693726,315.873444 
	C694.421143,320.997131 687.648315,321.782654 681.124634,323.438110 
	C677.918457,324.251709 674.651428,324.854156 671.489807,325.809601 
	C660.772766,329.048248 650.116150,332.488464 639.381165,335.664795 
	C635.582703,336.788696 631.627014,337.383362 627.740356,338.206573 
	C618.538147,340.155701 609.391907,342.466278 600.111389,343.915649 
	C593.590881,344.933960 586.875183,344.635315 580.266357,345.168762 
	C561.132629,346.713135 542.017395,348.493347 522.877258,349.948578 
	C514.365051,350.595734 505.810425,350.682648 497.275452,351.034241 
	C496.780304,351.054626 496.268005,351.101135 495.799042,351.248260 
	C479.466858,356.372101 462.456238,355.936310 445.681885,357.523926 
	C440.003143,358.061401 434.155518,359.053009 428.904358,361.142242 
	C424.892670,362.738342 420.041962,365.674835 418.485535,369.277161 
	C415.212585,376.852478 414.760193,378.039886 405.959961,378.301666 
	C405.104401,378.327148 404.144073,379.884979 403.518463,380.906708 
	C403.059296,381.656494 403.379425,383.028839 402.818939,383.548096 
	C398.650024,387.410614 401.766510,393.329681 403.116119,394.650970 
	C407.837402,399.273193 413.952271,402.591797 419.846161,405.847351 
	C422.925690,407.548401 426.648926,408.084045 430.091644,409.149231 
	C432.421783,407.965118 434.931213,406.461823 437.627777,405.464630 
	C438.392731,405.181793 440.680756,406.625458 440.622040,406.854309 
	C438.736664,414.200043 441.709625,415.155640 447.683289,412.426483 
	C447.793915,412.375885 448.003784,412.586121 448.149719,412.563049 
	C452.293243,411.907959 456.543274,411.621765 460.551483,410.484406 
	C467.095947,408.627350 473.340607,405.472107 479.968048,404.204193 
	C490.652863,402.160034 500.612305,404.662689 508.977692,412.032318 
	C510.055969,412.982269 511.158325,414.195770 511.607788,415.507141 
	C512.504883,418.124573 514.176758,418.678741 516.166199,417.320496 
	C521.820435,413.460236 528.154846,414.135651 534.458069,413.869019 
	C537.067139,413.758636 540.069702,412.780792 542.101135,411.187500 
	C547.199890,407.188538 552.289612,404.633911 559.176086,404.722595 
	C563.868225,404.783020 568.661987,402.401642 573.254150,400.692474 
	C574.309631,400.299652 575.530334,398.017700 575.295654,396.892944 
	C574.247742,391.871033 578.340271,391.148132 580.905579,391.322754 
	C583.703247,391.513184 589.121643,387.505280 589.428467,394.751099 
	C589.460510,395.507935 590.742310,396.423767 591.639221,396.893433 
	C594.663391,398.476959 598.265747,399.335052 600.735779,401.506866 
	C604.169189,404.525787 607.693054,404.815796 611.295654,403.188080 
	C614.782043,401.612976 617.478394,402.642242 620.765808,403.693665 
	C624.691772,404.949341 629.019348,405.075684 633.195557,405.376648 
	C635.821289,405.565857 638.638550,404.569550 641.105408,405.177826 
	C645.900208,406.360107 651.224854,406.694550 653.228760,413.033661 
	C654.504517,417.069489 658.740967,417.896454 662.780823,418.009399 
	C672.411194,418.278717 674.491943,420.743958 672.567566,429.997803 
	C668.121399,430.629547 665.659546,429.362061 664.673340,425.023346 
	C664.393066,423.790070 661.518677,421.931305 660.482056,422.280945 
	C653.385925,424.674316 646.263611,424.900391 639.205383,422.885986 
	C635.641907,421.869019 632.305115,419.878296 629.064148,417.987823 
	C627.476196,417.061584 626.277649,414.189789 625.014404,414.258270 
	C622.594666,414.389374 620.149963,415.803955 617.918030,417.048889 
	C616.404846,417.892975 615.421631,419.758453 613.879700,420.466003 
	C609.552917,422.451477 605.059387,424.073700 600.464478,425.905792 
	C600.849304,427.042755 601.291016,428.347870 601.662048,429.444183 
	C599.901245,430.787201 598.450623,431.893616 597.000000,433.000000 
	C596.555542,433.000000 596.111084,433.000000 595.274292,432.658447 
	C592.983276,429.285492 591.775146,425.196411 589.056274,423.421234 
	C580.941345,418.122894 573.713989,410.729279 562.186279,412.711578 
	C557.203064,413.568512 553.902710,414.610229 551.772766,419.307129 
	C549.355591,424.637543 545.219849,426.295776 539.131592,425.237152 
	C537.674622,424.983856 535.966736,424.649109 534.692627,425.154480 
	C530.805298,426.696320 528.584961,424.499939 526.004272,422.246307 
	C524.771118,421.169434 522.599548,420.364349 521.038879,420.611206 
	C515.668884,421.460602 510.427582,423.263275 505.044739,423.841553 
	C501.621613,424.209259 499.149902,424.776215 497.267792,427.964142 
	C495.443115,431.054840 492.655212,432.281677 489.261200,429.151245 
	C489.722015,427.824066 490.199524,426.448761 490.909515,424.403900 
	C487.822876,422.142151 484.653900,419.820099 481.434418,417.460999 
	C482.704041,416.318848 484.473969,415.338715 485.235870,413.844574 
	C485.829498,412.680359 485.168976,410.876617 485.065796,409.357086 
	C483.778076,409.794678 481.883972,409.843781 481.310425,410.738953 
	C479.141052,414.124756 476.111023,414.815399 472.391693,415.140411 
	C468.656189,415.466827 463.934296,416.122772 463.448120,420.758972 
	C462.934479,425.657013 460.995667,429.446075 458.000000,433.000000 
	C450.645752,433.000000 443.291504,433.000000 435.428467,432.651489 
	C432.333954,429.369507 430.109619,425.981812 427.097076,423.584686 
	C416.547394,415.190308 402.502686,412.036926 393.427338,401.335693 
	C393.173645,401.036560 392.486359,401.105255 391.991760,400.635498 
	C388.988586,397.177979 385.994904,394.087402 382.739075,390.871094 
	C381.987701,390.161926 381.498535,389.578552 381.007446,388.614197 
	C380.928192,384.223419 378.509216,382.157288 374.744080,380.884979 
	C373.999573,380.509918 373.509949,380.246796 373.013550,379.988647 
	C373.006714,379.993591 373.016083,379.980957 373.010498,379.618225 
	C371.674805,377.831116 370.344696,376.406708 368.813965,374.719055 
	C360.899811,366.967499 353.521484,359.089752 345.387939,352.089478 
	C335.239319,343.354889 325.009155,334.509766 313.816864,327.249939 
	C302.247223,319.745361 289.791382,313.392395 277.179352,307.751587 
	C245.150192,293.426392 212.240005,291.663147 178.859970,302.987671 
	C177.391739,303.485809 176.301010,305.096649 174.694946,306.252502 
	C173.898926,306.274750 173.442383,306.233704 172.914810,305.996216 
	C172.572571,305.944702 172.301376,306.089661 171.676178,306.330200 
	C169.868973,306.512451 168.415771,306.599091 166.751312,306.498444 
	C165.703644,306.493042 164.867203,306.674988 163.788208,306.943512 
	C163.389481,307.101562 163.233337,307.172974 162.725098,307.192902 
	C161.914078,307.242218 161.455185,307.343048 160.594269,307.393921 
	C151.458130,309.279633 142.723984,311.215302 133.894623,312.736816 
	C133.580063,310.016357 133.152664,307.708160 133.173813,305.404114 
	C133.371246,283.887787 136.952667,262.840790 141.681381,241.905594 
	C146.145035,222.143936 150.215302,202.263779 148.932083,181.802078 
	C148.622955,176.872742 147.625061,171.986588 147.007339,166.733612 
	C147.937759,165.202087 148.689392,163.908417 149.690216,162.850464 
	C156.843384,155.289062 164.574814,148.205200 171.126999,140.158966 
	C185.433136,122.590721 198.136490,103.874428 209.259918,84.082977 
	C211.407639,80.261620 215.091522,77.303635 218.372925,74.081482 
	C220.106812,74.826797 221.534546,75.438004 222.981750,76.031433 
	C223.001221,76.013649 222.961487,76.039207 223.133545,76.282043 
	C223.857910,76.711479 224.410217,76.898071 224.974701,77.043503 
	C224.986908,77.002342 224.932510,77.068832 225.105042,77.351891 
	C226.852829,78.418831 228.428101,79.202713 230.175339,80.057938 
	C230.347321,80.129288 230.719467,80.142578 230.933960,80.376793 
	C231.743484,80.783249 232.338516,80.955490 232.953690,81.067047 
	C232.973846,81.006355 232.903976,81.113548 233.063644,81.406418 
	C234.823135,82.445465 236.422943,83.191635 238.218918,84.173653 
	C239.187332,84.652504 239.959610,84.895515 240.952362,85.409767 
	C242.452255,86.144882 243.731644,86.608757 245.153595,87.137390 
	C245.296143,87.202148 245.608917,87.186684 245.794510,87.490952 
	C252.664749,90.242767 259.349396,92.690315 266.177948,95.194496 
	C266.321838,95.251137 266.624603,95.188087 266.863037,95.449501 
	C268.397308,96.121941 269.693207,96.532967 271.201904,97.004852 
	C271.414703,97.065727 271.857361,97.071777 272.124817,97.329926 
	C275.926819,98.397186 279.461395,99.206306 282.997772,100.006866 
	C282.999573,99.998306 282.984131,100.008484 283.086060,100.174210 
	C283.188019,100.339928 283.510681,100.548424 283.510681,100.548424 
	C283.510681,100.548424 283.891724,100.500916 284.240112,100.614197 
	C285.074402,100.758408 285.560272,100.789337 286.394897,101.007034 
	C290.170471,101.669022 293.597321,102.144234 297.356415,102.706474 
	C298.145508,102.791161 298.602356,102.788818 299.464844,102.888428 
	C313.043060,104.901306 326.087463,104.328186 339.325623,100.976151 
	C340.100616,100.882584 340.538391,100.785431 341.307617,100.729706 
	C342.844604,100.224403 344.050140,99.677666 345.444275,99.134247 
	C345.632935,99.137558 345.993622,99.026749 346.395020,99.034859 
	C352.617157,96.739540 358.437866,94.436111 364.449829,92.119766 
	C364.641083,92.106850 364.991241,91.950882 365.286743,91.945442 
	C366.055664,91.625969 366.529114,91.311935 367.293518,90.968033 
	C368.055847,90.623688 368.527222,90.309235 369.244690,89.928009 
	C369.696075,89.604012 369.901367,89.346771 370.059998,89.086990 
	C370.013367,89.084450 370.080505,89.149422 370.383911,89.143753 
	C371.156281,88.797279 371.625214,88.456467 372.049530,88.065308 
	C372.004913,88.014946 372.069794,88.132858 372.379730,88.118042 
	C373.193665,87.769539 373.697632,87.435852 374.469421,87.067757 
	C375.172699,86.739853 375.608215,86.446365 376.341614,86.110466 
	C377.101013,85.716240 377.562469,85.364426 378.239502,84.951004 
	C378.743927,84.767433 378.958008,84.566040 379.436523,84.218285 
	C381.214569,83.131470 382.653412,82.111588 384.060242,81.052643 
	C384.028290,81.013573 384.049896,81.112167 384.347137,81.084450 
	C385.103546,80.710793 385.562683,80.364853 386.010315,80.010536 
	C385.998779,80.002159 386.017944,80.026268 386.332886,79.991867 
	C387.431519,79.305595 388.215271,78.653717 388.999512,78.000916 
	C389.000000,78.000000 389.001862,77.999390 389.314087,77.958069 
	C390.402313,77.271301 391.178284,76.625862 392.184937,75.902229 
	C392.709076,75.655190 392.919128,75.413765 393.376526,75.029526 
	C395.732574,73.608742 397.757843,72.258186 400.179688,70.931747 
	C401.665283,69.830345 402.754333,68.704834 403.985687,67.380058 
	C404.582672,67.059082 405.037384,66.937378 405.885468,66.843613 
	C408.452026,64.845169 410.625244,62.818794 412.850494,60.850220 
	C412.902527,60.908020 412.807770,60.800964 413.170044,60.834694 
	C414.948669,59.183529 416.365021,57.498638 417.736084,55.760597 
	C417.690765,55.707451 417.671021,55.569164 418.062225,55.677956 
	C420.337006,54.796040 422.619232,54.191093 424.025116,52.738174 
	C427.458221,49.190239 429.900879,48.859035 433.398590,52.077259 
	C433.942169,52.577412 434.824921,52.751709 435.581543,52.970409 
	C439.671844,54.152721 444.204742,54.576912 447.734650,56.685818 
	C450.684113,58.447941 454.264282,62.081314 454.407471,65.038879 
	C454.768646,72.500298 452.110565,74.750526 444.487854,76.689941 
	C443.684082,76.894440 442.509399,76.721581 442.103790,77.214760 
	C440.702148,78.919022 439.031403,80.702576 438.507843,82.726242 
	C438.137848,84.156204 439.458466,86.023567 440.024353,87.695663 
	C441.966553,87.009178 443.920898,86.354248 445.841644,85.612267 
	C446.278015,85.443680 446.566284,84.926796 446.976318,84.649437 
	C450.589447,82.205307 453.678833,78.596542 459.023254,80.731102 
	C460.151672,81.181808 463.536835,79.368393 463.684265,78.296028 
	C464.285797,73.920723 467.191101,74.138107 470.250885,73.982185 
	C479.597321,73.505920 488.937042,72.683449 498.285583,72.585014 
	C501.354614,72.552704 505.793396,73.361351 507.272858,75.443275 
	C512.022827,82.127541 518.985352,84.545326 525.754822,88.049965 
	C534.758667,92.711380 544.214172,87.891571 553.084961,90.875290 
	C553.955383,91.168060 555.308838,89.782578 556.324890,89.934265 
	C558.529358,90.263359 561.373474,90.418518 562.687439,91.827705 
	C566.566101,95.987495 568.177979,96.296806 571.145264,91.598770 
	C573.218750,88.316063 575.751038,86.460472 579.648193,85.489990 
	C587.345032,83.573311 595.322144,81.784912 597.038757,71.660004 
	C597.294006,70.154297 601.811829,68.287140 604.247253,68.432907 
	C612.456665,68.924271 620.387756,68.500725 627.947021,65.017593 
	C637.308960,60.703842 646.648376,56.341305 656.414429,51.999832 
	C658.220886,51.998882 659.610474,51.997944 661.148682,52.335697 
	C661.367920,53.783230 661.298584,54.922676 661.533203,55.995636 
	C662.570496,60.739182 662.499268,66.290031 665.065247,70.003632 
	C669.034607,75.748177 674.226013,81.103989 679.972412,85.069435 
	C691.728333,93.181854 700.308716,105.413483 714.094177,110.898407 
	C716.780151,111.967079 718.717407,114.917526 721.000000,117.000015 
z"/>
<path fill="#3C52D9" opacity="1.000000" stroke="none" 
	d="
M160.996277,307.443848 
	C161.455185,307.343048 161.914078,307.242218 163.055298,307.427460 
	C171.969498,308.146271 180.224808,308.327484 188.425827,309.091522 
	C194.959946,309.700226 201.427780,311.020081 208.205261,312.010498 
	C208.659134,312.066284 208.832779,312.135803 209.081924,312.527283 
	C211.081268,313.310303 213.005096,313.771362 215.220306,314.210785 
	C216.013977,314.442444 216.516296,314.695740 217.197769,315.204010 
	C217.968002,315.587708 218.559082,315.716431 219.101013,315.852173 
	C219.051849,315.859222 219.101990,315.773499 219.222900,316.129578 
	C221.922623,317.301086 224.501404,318.116516 227.045624,318.955719 
	C227.011047,318.979492 227.034943,318.899078 227.199097,319.162354 
	C227.942596,319.589630 228.521912,319.753632 229.064667,319.937378 
	C229.028091,319.957123 229.035522,319.874329 229.224182,320.156128 
	C230.057877,320.584717 230.702911,320.731567 231.529449,320.866394 
	C231.710953,320.854401 232.013626,321.056244 232.151428,321.264465 
	C232.589050,321.604095 232.888870,321.735443 233.130692,321.874939 
	C233.072708,321.883057 233.089767,321.767181 233.265335,322.080017 
	C234.121735,322.547699 234.802582,322.702576 235.635040,322.845581 
	C235.786667,322.833710 236.001923,323.048584 236.072556,323.403992 
	C237.910980,324.459656 239.678757,325.159912 241.608459,325.859253 
	C241.770370,325.858276 242.003204,326.083344 242.065231,326.412170 
	C243.496643,327.428589 244.866043,328.116180 246.209717,328.737061 
	C246.184021,328.670349 246.319626,328.625000 246.283661,328.827820 
	C246.506760,328.980591 246.765839,328.930511 247.319153,328.924133 
	C248.076736,329.312744 248.540085,329.657715 249.137222,330.220978 
	C249.572083,330.587585 249.873138,330.735901 250.119720,330.882935 
	C250.065247,330.881683 250.097687,330.777649 250.228821,331.066345 
	C250.938782,331.545837 251.517593,331.736694 252.049774,331.942169 
	C252.003159,331.956787 252.070221,331.885712 252.103760,332.245117 
	C253.779221,333.387238 255.421143,334.169922 257.030579,334.971924 
	C256.998047,334.991272 257.043182,334.930450 257.089508,335.284790 
	C258.128601,336.062439 259.121399,336.485748 260.078796,336.936707 
	C260.043396,336.964355 260.051422,336.874908 260.163177,337.119690 
	C260.581543,337.534058 260.888153,337.703644 261.139221,337.865601 
	C261.083649,337.858002 261.132416,337.756989 261.226898,338.098633 
	C262.529572,338.967285 263.737793,339.494293 264.971161,340.008820 
	C264.996338,339.996338 264.992767,340.052460 265.136902,340.265259 
	C265.581940,340.632477 265.882812,340.786926 266.377899,340.964264 
	C266.837280,341.083405 267.013000,341.265839 267.208923,341.860260 
	C267.920441,342.439056 268.522278,342.692047 269.381226,343.040649 
	C269.761719,343.271149 269.885132,343.406097 270.090302,343.797485 
	C270.777802,344.368683 271.383545,344.683411 271.995178,344.997864 
	C272.001038,344.997559 272.004578,345.007812 272.130920,345.224609 
	C272.541229,345.609802 272.825165,345.778259 273.067596,345.942139 
	C273.026123,345.937592 273.082794,345.876343 273.108307,346.223724 
	C273.847015,346.952240 274.560242,347.333374 275.245819,347.759460 
	C275.218170,347.804443 275.162537,347.714691 275.263245,348.027008 
	C276.312683,348.851654 277.261383,349.363983 278.148407,349.883850 
	C278.086700,349.891388 278.105896,349.768524 278.224182,350.053772 
	C278.895782,350.553131 279.449066,350.767242 280.002838,350.988983 
	C280.003326,350.996613 280.018555,350.992096 280.139221,351.212616 
	C280.542145,351.605347 280.824371,351.777588 281.068420,351.958557 
	C281.030212,351.967285 281.047577,351.890869 281.157990,352.132141 
	C281.564392,352.554413 281.860382,352.735413 282.104919,352.916870 
	C282.053406,352.917389 282.075562,352.816833 282.199127,353.087158 
	C282.853027,353.576477 283.383362,353.795441 284.162109,354.083252 
	C284.618195,354.417389 284.825867,354.682678 285.147980,355.177704 
	C285.547882,355.587036 285.833374,355.766663 286.080322,355.953033 
	C286.041809,355.959808 286.043427,355.881622 286.190369,356.141968 
	C286.692780,356.566559 287.048309,356.730835 287.696350,356.962402 
	C289.013000,357.967865 290.037109,358.906036 291.090027,360.189575 
	C291.814240,360.966980 292.509583,361.399048 293.172913,361.871826 
	C293.140900,361.912506 293.074249,361.833252 293.227783,362.112305 
	C293.764587,362.559052 294.147858,362.726746 294.678833,362.881592 
	C294.826508,362.868744 295.023590,363.090240 295.138367,363.287170 
	C295.452942,363.726562 295.703308,363.893036 296.003540,363.990540 
	C296.002869,363.997559 296.017242,363.996490 296.062927,364.321320 
	C296.779114,365.066223 297.449585,365.486298 298.063477,365.920837 
	C298.006866,365.935333 298.098816,365.863190 298.101807,366.220795 
	C300.760254,368.693359 303.415680,370.808289 306.057129,372.962463 
	C306.043121,373.001678 306.051361,372.921417 306.158539,373.155151 
	C306.548279,373.572479 306.830841,373.756104 307.070770,373.930237 
	C307.028137,373.920807 307.101135,373.872864 307.104919,374.231934 
	C308.481506,375.655975 309.854340,376.720978 311.191345,377.831177 
	C311.155579,377.876343 311.146240,377.761444 311.214539,378.079468 
	C311.955322,378.859406 312.627838,379.321289 313.256714,379.745117 
	C313.213074,379.707031 313.316101,379.654236 313.242737,380.039062 
	C316.983368,385.600098 320.515625,391.023102 324.737274,395.842224 
	C326.673035,398.051971 330.225006,398.757477 332.585754,400.701599 
	C337.688202,404.903595 342.442749,409.525696 347.471191,413.821930 
	C348.361145,414.582275 349.888672,414.596405 351.426575,415.085175 
	C356.263397,418.935242 360.795410,422.655212 365.408325,426.576019 
	C365.489258,426.776886 365.852905,427.012177 365.938385,427.341797 
	C367.709869,429.042297 369.395874,430.413208 371.111389,431.870758 
	C371.140961,431.957397 371.323456,431.942902 371.307556,432.227051 
	C371.194458,432.674103 371.097229,432.837036 371.000000,433.000000 
	C247.785065,433.000000 124.570114,433.000000 1.000000,433.000000 
	C1.000000,404.646759 1.000000,376.292053 1.405376,347.480286 
	C19.768835,351.913696 37.648106,351.164825 55.169422,345.339020 
	C67.428558,341.262878 79.492325,336.528748 91.421257,331.555725 
	C98.846046,328.460388 105.856735,324.371704 113.423172,320.781799 
	C115.348396,320.318573 116.907661,319.813934 118.458298,319.283966 
	C123.626755,317.517639 128.792130,315.742218 134.384354,313.980347 
	C140.199860,312.721039 145.600159,311.493988 150.975708,310.166748 
	C154.335175,309.337250 157.657364,308.356628 160.996277,307.443848 
z"/>
<path fill="#3C52D9" opacity="1.000000" stroke="none" 
	d="
M1.000000,129.000000 
	C1.000000,86.379921 1.000000,43.759838 1.000000,1.000000 
	C91.687515,1.000000 182.375092,1.000000 273.521790,1.372723 
	C273.048096,2.855295 272.118622,3.967994 271.181549,5.074240 
	C270.102051,6.348635 269.015778,7.617332 267.941254,8.936754 
	C267.950073,8.985009 268.015137,9.058453 267.702057,9.061253 
	C266.564392,9.606022 265.739807,10.147992 264.519958,10.727714 
	C260.165039,11.453954 256.112274,11.965684 253.581268,16.041306 
	C249.072052,17.425787 244.746811,18.464354 240.872040,20.403194 
	C216.179138,32.758907 193.456955,48.001953 173.869537,67.593140 
	C142.387009,99.081741 105.090591,119.429878 60.639633,127.068253 
	C50.231327,128.067688 40.250584,129.525253 30.232838,129.853470 
	C20.508318,130.172058 10.745820,129.331512 1.000000,129.000000 
z"/>
<path fill="#F5F6F6" opacity="1.000000" stroke="none" 
	d="
M673.000000,429.997070 
	C674.491943,420.743958 672.411194,418.278717 662.780823,418.009399 
	C658.740967,417.896454 654.504517,417.069489 653.228760,413.033661 
	C651.224854,406.694550 645.900208,406.360107 641.105408,405.177826 
	C638.638550,404.569550 635.821289,405.565857 633.195557,405.376648 
	C629.019348,405.075684 624.691772,404.949341 620.765808,403.693665 
	C617.478394,402.642242 614.782043,401.612976 611.295654,403.188080 
	C607.693054,404.815796 604.169189,404.525787 600.735779,401.506866 
	C598.265747,399.335052 594.663391,398.476959 591.639221,396.893433 
	C590.742310,396.423767 589.460510,395.507935 589.428467,394.751099 
	C589.121643,387.505280 583.703247,391.513184 580.905579,391.322754 
	C578.340271,391.148132 574.247742,391.871033 575.295654,396.892944 
	C575.530334,398.017700 574.309631,400.299652 573.254150,400.692474 
	C568.661987,402.401642 563.868225,404.783020 559.176086,404.722595 
	C552.289612,404.633911 547.199890,407.188538 542.101135,411.187500 
	C540.069702,412.780792 537.067139,413.758636 534.458069,413.869019 
	C528.154846,414.135651 521.820435,413.460236 516.166199,417.320496 
	C514.176758,418.678741 512.504883,418.124573 511.607788,415.507141 
	C511.158325,414.195770 510.055969,412.982269 508.977692,412.032318 
	C500.612305,404.662689 490.652863,402.160034 479.968048,404.204193 
	C473.340607,405.472107 467.095947,408.627350 460.551483,410.484406 
	C456.543274,411.621765 452.293243,411.907959 448.149719,412.563049 
	C448.003784,412.586121 447.793915,412.375885 447.683289,412.426483 
	C441.709625,415.155640 438.736664,414.200043 440.622040,406.854309 
	C440.680756,406.625458 438.392731,405.181793 437.627777,405.464630 
	C434.931213,406.461823 432.421783,407.965118 430.091644,409.149231 
	C426.648926,408.084045 422.925690,407.548401 419.846161,405.847351 
	C413.952271,402.591797 407.837402,399.273193 403.116119,394.650970 
	C401.766510,393.329681 398.650024,387.410614 402.818939,383.548096 
	C403.379425,383.028839 403.059296,381.656494 403.518463,380.906708 
	C404.144073,379.884979 405.104401,378.327148 405.959961,378.301666 
	C414.760193,378.039886 415.212585,376.852478 418.485535,369.277161 
	C420.041962,365.674835 424.892670,362.738342 428.904358,361.142242 
	C434.155518,359.053009 440.003143,358.061401 445.681885,357.523926 
	C462.456238,355.936310 479.466858,356.372101 495.799042,351.248260 
	C496.268005,351.101135 496.780304,351.054626 497.275452,351.034241 
	C505.810425,350.682648 514.365051,350.595734 522.877258,349.948578 
	C542.017395,348.493347 561.132629,346.713135 580.266357,345.168762 
	C586.875183,344.635315 593.590881,344.933960 600.111389,343.915649 
	C609.391907,342.466278 618.538147,340.155701 627.740356,338.206573 
	C631.627014,337.383362 635.582703,336.788696 639.381165,335.664795 
	C650.116150,332.488464 660.772766,329.048248 671.489807,325.809601 
	C674.651428,324.854156 677.918457,324.251709 681.124634,323.438110 
	C687.648315,321.782654 694.421143,320.997131 699.693726,315.873444 
	C701.207275,314.402527 704.302063,314.200745 706.706116,314.075348 
	C712.488708,313.773621 715.054810,311.922729 717.018982,306.575134 
	C717.530212,305.183136 719.132629,304.191895 720.616943,303.008301 
	C721.000000,330.354218 721.000000,357.708466 720.632080,385.578674 
	C719.179077,387.577850 717.575500,388.914673 717.107605,390.572113 
	C715.772339,395.302094 715.137939,400.236725 713.682800,404.921509 
	C713.298828,406.157593 710.975464,407.478699 709.484802,407.549866 
	C705.596130,407.735474 704.252991,409.446350 705.749695,413.167603 
	C706.158447,414.183777 706.978210,415.886383 706.615601,416.232422 
	C701.744202,420.880493 698.454590,427.521210 690.669800,429.000977 
	C689.887939,429.000916 689.441223,429.001068 688.612549,429.050293 
	C686.376343,429.190918 684.490234,429.106781 682.678467,429.433807 
	C681.400940,429.664429 680.224182,430.453156 678.615234,430.993835 
	C676.485352,430.662354 674.742676,430.329712 673.000000,429.997070 
z"/>
<path fill="#4B79D9" opacity="1.000000" stroke="none" 
	d="
M1.000000,129.468658 
	C10.745820,129.331512 20.508318,130.172058 30.232838,129.853470 
	C40.250584,129.525253 50.231327,128.067688 60.534981,127.435463 
	C58.583874,142.496460 55.574757,157.163483 54.337242,171.978516 
	C53.537048,181.558121 55.329624,191.354294 55.969421,201.483429 
	C56.963497,207.606339 57.796085,213.330597 58.958729,218.987000 
	C65.454903,250.591812 79.012184,278.855682 99.357422,303.879761 
	C103.923271,309.495636 108.488007,315.112457 113.053268,320.728821 
	C105.856735,324.371704 98.846046,328.460388 91.421257,331.555725 
	C79.492325,336.528748 67.428558,341.262878 55.169422,345.339020 
	C37.648106,351.164825 19.768835,351.913696 1.405376,347.011627 
	C1.000000,274.645782 1.000000,202.291550 1.000000,129.468658 
z"/>
<path fill="#E7F1F8" opacity="1.000000" stroke="none" 
	d="
M582.000000,1.000000 
	C599.020874,1.000000 616.041809,1.000000 633.490967,1.347932 
	C633.351990,2.984280 632.784729,4.272696 631.907654,6.264689 
	C638.178589,6.859760 640.087036,11.006394 640.915955,16.075735 
	C641.043579,16.856306 641.369507,17.784311 641.926086,18.287628 
	C649.027344,24.709349 648.697937,33.627850 649.635498,42.079807 
	C647.700256,44.387356 647.326111,47.296162 643.820190,48.316135 
	C641.498169,48.991653 639.331726,51.360638 637.838440,53.491940 
	C634.411865,58.382782 629.774048,59.815132 623.996643,58.191162 
	C621.713135,57.549286 618.765564,58.460537 616.357727,59.325344 
	C614.416260,60.022606 612.980652,62.435936 611.061523,62.831570 
	C604.488770,64.186584 597.792114,64.928894 591.161743,66.020378 
	C586.253296,66.828400 579.748535,65.670929 577.983826,71.728317 
	C576.675537,76.219055 574.548950,79.848923 572.315369,83.747520 
	C570.463989,86.978859 568.524719,88.264427 564.897217,88.053474 
	C556.207886,87.548149 547.479614,87.596107 538.812683,86.873833 
	C534.755188,86.535698 530.020020,86.570915 528.228455,81.140129 
	C527.928162,80.229889 525.294861,79.919655 523.686401,79.652962 
	C521.610596,79.308769 519.481140,79.287460 517.374817,79.127106 
	C523.739502,75.230080 525.751526,70.260696 520.989868,65.618622 
	C516.351074,61.096306 510.245941,56.997776 504.089417,55.411865 
	C497.740997,53.776524 492.471863,51.494865 488.803070,46.449615 
	C481.862640,36.905251 471.513184,34.797184 461.411621,35.804375 
	C451.763794,36.766323 442.455017,41.129288 433.056702,43.654518 
	C435.594238,41.785667 438.167145,40.389969 440.513733,38.683102 
	C441.857727,37.705471 443.669281,36.309151 443.810974,34.949280 
	C444.164459,31.556288 445.970093,31.191557 448.776215,30.898048 
	C451.941193,30.567007 455.023041,29.440802 458.638855,28.535835 
	C455.750244,25.691431 453.873138,23.843025 452.209656,21.880213 
	C452.689117,21.565842 452.881378,21.310457 453.373779,20.994179 
	C454.656738,20.652824 455.559967,20.299650 456.476410,19.985071 
	C457.896973,19.497438 459.326569,19.036139 460.752319,18.563679 
	C461.050079,20.241253 461.700745,21.949255 461.559387,23.588970 
	C461.367523,25.814568 460.569397,27.987900 459.999390,30.313986 
	C467.467804,32.678375 473.336914,28.969814 477.658234,25.061985 
	C481.571472,21.523245 485.599579,20.938337 490.370605,20.005171 
	C497.481140,21.956692 504.050293,29.654854 505.069855,36.267498 
	C505.671814,40.171764 507.004578,43.957611 507.785034,47.841652 
	C508.646454,52.128906 511.271423,53.963676 515.304382,52.919361 
	C522.313660,51.104347 528.079346,53.737808 533.312317,57.699829 
	C538.941711,61.961929 545.450134,63.306160 551.703186,61.702862 
	C557.733582,60.156662 564.276001,57.470844 568.585815,53.240391 
	C572.820679,49.083519 577.346313,46.772671 582.555847,45.427574 
	C587.297363,44.203331 590.533936,42.811371 588.274780,37.088436 
	C588.022400,36.449211 588.318665,35.394653 588.706970,34.737354 
	C590.056885,32.452255 589.694763,31.092598 587.353210,29.468134 
	C583.969971,27.120939 583.706970,17.295422 586.326782,13.962895 
	C586.764954,13.405582 586.135925,12.009318 585.956787,10.637704 
	C585.687866,8.990389 585.462158,7.706069 585.012878,5.149096 
	C590.474792,8.480559 594.945496,9.337286 600.481934,6.643261 
	C595.532104,3.722840 591.095825,2.347373 586.228271,3.491479 
	C583.718689,4.081347 582.349792,3.639763 582.000000,1.000000 
z"/>
<path fill="#F7FAFA" opacity="1.000000" stroke="none" 
	d="
M721.000000,116.531357 
	C718.717407,114.917526 716.780151,111.967079 714.094177,110.898407 
	C700.308716,105.413483 691.728333,93.181854 679.972412,85.069435 
	C674.226013,81.103989 669.034607,75.748177 665.065247,70.003632 
	C662.499268,66.290031 662.570496,60.739182 661.533203,55.995636 
	C661.298584,54.922676 661.367920,53.783230 661.189819,51.977051 
	C664.490723,46.260612 666.871399,39.648640 671.564453,36.620697 
	C677.596375,32.728920 683.334717,28.627678 689.175964,24.543350 
	C698.419434,18.080172 709.344238,13.525541 721.000000,12.000000 
	C721.000000,46.687561 721.000000,81.375122 721.000000,116.531357 
z"/>
<path fill="#64A8ED" opacity="1.000000" stroke="none" 
	d="
M355.000000,1.000000 
	C372.687561,1.000000 390.375122,1.000000 408.525604,1.366863 
	C408.224213,3.124707 407.607941,4.625593 406.670471,5.887977 
	C402.191528,11.919420 397.328003,17.757463 397.614319,26.048973 
	C394.857117,26.731424 392.506805,27.797678 390.110016,27.915047 
	C383.975189,28.215466 377.678406,26.640066 372.013763,30.707481 
	C370.568512,31.745226 368.095886,32.037235 366.255402,31.725689 
	C356.045746,29.997448 345.865845,28.074173 335.715210,26.022619 
	C329.072083,24.679964 322.532318,22.607178 315.764374,25.511097 
	C314.634216,25.996004 313.163544,25.860680 311.869507,25.761175 
	C304.796906,25.217335 297.705719,24.796465 290.669739,23.934587 
	C285.292206,23.275860 279.827637,22.511328 274.716461,20.834597 
	C272.120056,19.982828 270.218262,17.013529 268.372314,15.045301 
	C285.064819,20.242680 301.125549,22.606340 315.902985,10.766890 
	C316.517273,10.274734 317.426056,10.166623 318.163818,9.809622 
	C325.860474,6.085086 334.151398,6.300216 342.401794,5.925073 
	C347.032288,5.714527 352.097076,5.929704 355.000000,1.000000 
z"/>
<path fill="#EEF9FD" opacity="1.000000" stroke="none" 
	d="
M721.000000,11.517044 
	C709.344238,13.525541 698.419434,18.080172 689.175964,24.543350 
	C683.334717,28.627678 677.596375,32.728920 671.564453,36.620697 
	C666.871399,39.648640 664.490723,46.260612 661.041138,51.638359 
	C659.610474,51.997944 658.220886,51.998882 656.349182,51.650860 
	C652.255981,49.245518 648.674133,47.170746 649.997559,42.000580 
	C648.697937,33.627850 649.027344,24.709349 641.926086,18.287628 
	C641.369507,17.784311 641.043579,16.856306 640.915955,16.075735 
	C640.087036,11.006394 638.178589,6.859760 631.907654,6.264689 
	C632.784729,4.272696 633.351990,2.984280 633.959595,1.347932 
	C663.000000,1.000000 692.000061,1.000000 721.000000,1.000000 
	C721.000000,4.399283 721.000000,7.716686 721.000000,11.517044 
z"/>
<path fill="#DFEFFB" opacity="1.000000" stroke="none" 
	d="
M581.531372,1.000000 
	C582.349792,3.639763 583.718689,4.081347 586.228271,3.491479 
	C591.095825,2.347373 595.532104,3.722840 600.481934,6.643261 
	C594.945496,9.337286 590.474792,8.480559 585.012878,5.149096 
	C585.462158,7.706069 585.687866,8.990389 585.631348,10.807475 
	C581.223755,13.473677 577.195435,15.417286 572.436218,12.660663 
	C568.925598,10.627259 564.722961,7.139958 561.516907,7.775015 
	C554.631775,9.138839 547.620605,11.867261 541.730103,15.686030 
	C535.909241,19.459642 531.432739,25.293188 526.302185,30.155193 
	C525.093262,31.300817 523.626160,32.173965 521.042175,34.087524 
	C521.301392,29.868671 522.474548,26.680149 521.420044,24.646969 
	C519.177063,20.322283 516.298157,15.973154 512.621033,12.901786 
	C510.884857,11.451618 506.449799,12.216638 503.695648,13.226793 
	C498.941772,14.970423 494.545410,17.688828 489.999023,19.998241 
	C485.599579,20.938337 481.571472,21.523245 477.658234,25.061985 
	C473.336914,28.969814 467.467804,32.678375 459.999390,30.313986 
	C460.569397,27.987900 461.367523,25.814568 461.559387,23.588970 
	C461.700745,21.949255 461.050079,20.241253 460.752319,18.563679 
	C459.326569,19.036139 457.896973,19.497438 456.476410,19.985071 
	C455.559967,20.299650 454.656738,20.652824 453.430786,20.650505 
	C454.756805,17.888851 456.399628,15.465398 458.367889,13.033282 
	C459.127197,13.011469 459.561066,12.998317 460.361450,12.983878 
	C463.165253,11.000576 465.602539,9.018561 468.384216,6.991940 
	C471.152374,4.964883 473.576172,2.982432 476.000000,0.999991 
	C511.020905,1.000000 546.041809,1.000000 581.531372,1.000000 
z"/>
<path fill="#ECF1F6" opacity="1.000000" stroke="none" 
	d="
M458.468658,433.000000 
	C460.995667,429.446075 462.934479,425.657013 463.448120,420.758972 
	C463.934296,416.122772 468.656189,415.466827 472.391693,415.140411 
	C476.111023,414.815399 479.141052,414.124756 481.310425,410.738953 
	C481.883972,409.843781 483.778076,409.794678 485.065796,409.357086 
	C485.168976,410.876617 485.829498,412.680359 485.235870,413.844574 
	C484.473969,415.338715 482.704041,416.318848 481.434418,417.460999 
	C484.653900,419.820099 487.822876,422.142151 490.909515,424.403900 
	C490.199524,426.448761 489.722015,427.824066 489.261200,429.151245 
	C492.655212,432.281677 495.443115,431.054840 497.267792,427.964142 
	C499.149902,424.776215 501.621613,424.209259 505.044739,423.841553 
	C510.427582,423.263275 515.668884,421.460602 521.038879,420.611206 
	C522.599548,420.364349 524.771118,421.169434 526.004272,422.246307 
	C528.584961,424.499939 530.805298,426.696320 534.692627,425.154480 
	C535.966736,424.649109 537.674622,424.983856 539.131592,425.237152 
	C545.219849,426.295776 549.355591,424.637543 551.772766,419.307129 
	C553.902710,414.610229 557.203064,413.568512 562.186279,412.711578 
	C573.713989,410.729279 580.941345,418.122894 589.056274,423.421234 
	C591.775146,425.196411 592.983276,429.285492 594.941040,432.658447 
	C549.645752,433.000000 504.291534,433.000000 458.468658,433.000000 
z"/>
<path fill="#5DA7EC" opacity="1.000000" stroke="none" 
	d="
M354.531342,1.000000 
	C352.097076,5.929704 347.032288,5.714527 342.401794,5.925073 
	C334.151398,6.300216 325.860474,6.085086 318.163818,9.809622 
	C317.426056,10.166623 316.517273,10.274734 315.902985,10.766890 
	C301.125549,22.606340 285.064819,20.242680 268.312012,14.704947 
	C266.923645,13.880055 265.965485,13.439322 265.007721,12.749153 
	C265.008118,12.499718 265.010437,12.000854 265.305084,11.868025 
	C266.404877,10.842948 267.209991,9.950699 268.015137,9.058451 
	C268.015137,9.058453 267.950073,8.985009 268.339508,8.967327 
	C271.400330,8.228543 274.634277,8.208126 276.610718,6.621399 
	C279.543488,4.266947 285.090942,6.410785 286.000000,1.000000 
	C308.687561,1.000000 331.375122,1.000000 354.531342,1.000000 
z"/>
<path fill="#ECF1F6" opacity="1.000000" stroke="none" 
	d="
M672.567566,429.997803 
	C674.742676,430.329712 676.485352,430.662354 679.009094,430.995483 
	C681.193420,431.664001 682.596741,432.332001 684.000000,433.000000 
	C655.312439,433.000000 626.624878,433.000000 597.468628,433.000000 
	C598.450623,431.893616 599.901245,430.787201 601.662048,429.444183 
	C601.291016,428.347870 600.849304,427.042755 600.464478,425.905792 
	C605.059387,424.073700 609.552917,422.451477 613.879700,420.466003 
	C615.421631,419.758453 616.404846,417.892975 617.918030,417.048889 
	C620.149963,415.803955 622.594666,414.389374 625.014404,414.258270 
	C626.277649,414.189789 627.476196,417.061584 629.064148,417.987823 
	C632.305115,419.878296 635.641907,421.869019 639.205383,422.885986 
	C646.263611,424.900391 653.385925,424.674316 660.482056,422.280945 
	C661.518677,421.931305 664.393066,423.790070 664.673340,425.023346 
	C665.659546,429.362061 668.121399,430.629547 672.567566,429.997803 
z"/>
<path fill="#D4E5F5" opacity="1.000000" stroke="none" 
	d="
M381.009338,388.995148 
	C381.498535,389.578552 381.987701,390.161926 382.778229,391.220581 
	C384.968323,394.280182 386.203796,396.723450 384.312836,400.127686 
	C383.502441,401.586639 383.859894,404.207001 384.585236,405.918915 
	C388.032135,414.054016 391.807465,422.049530 395.407684,430.120697 
	C395.797546,430.994659 395.811646,432.036194 396.000000,433.000000 
	C388.312408,433.000000 380.624847,433.000000 372.479675,432.738647 
	C372.011993,432.303192 372.001862,432.129089 372.049866,431.585999 
	C373.257446,430.473358 374.636658,429.927399 375.493286,428.931793 
	C376.395355,427.883453 377.597382,426.161469 377.290100,425.154297 
	C375.171051,418.207764 372.095520,411.506561 370.495636,404.461243 
	C368.900055,397.434601 366.284027,389.873688 372.583618,383.362976 
	C373.216919,382.708435 372.897583,381.132172 373.020355,379.983673 
	C373.509949,380.246796 373.999573,380.509918 374.782959,381.230530 
	C377.054291,384.123718 379.031830,386.559448 381.009338,388.995148 
z"/>
<path fill="#6BAEEE" opacity="1.000000" stroke="none" 
	d="
M398.000000,26.000595 
	C397.328003,17.757463 402.191528,11.919420 406.670471,5.887977 
	C407.607941,4.625593 408.224213,3.124707 408.994263,1.366863 
	C413.689240,1.000000 418.378510,1.000000 423.488892,1.372070 
	C420.606293,10.163019 417.302551,18.581900 413.638641,27.047951 
	C412.245544,28.672277 411.180115,30.229347 410.188660,31.832159 
	C409.166382,33.484776 408.373627,35.301998 407.204102,36.836605 
	C403.974609,41.074345 400.648834,45.241890 397.251038,49.346054 
	C396.375854,50.403172 395.094696,51.124161 393.683289,51.857521 
	C391.982758,50.091568 389.226746,48.160168 389.507080,46.909161 
	C390.054047,44.468304 392.091827,42.210835 393.930695,40.274811 
	C394.827545,39.330605 397.141418,39.690216 397.967834,38.730839 
	C399.295929,37.189075 400.739746,34.999870 400.643188,33.162640 
	C400.515594,30.735683 398.948364,28.384407 398.000000,26.000595 
z"/>
<path fill="#F7FAFA" opacity="1.000000" stroke="none" 
	d="
M691.004883,429.001221 
	C698.454590,427.521210 701.744202,420.880493 706.615601,416.232422 
	C706.978210,415.886383 706.158447,414.183777 705.749695,413.167603 
	C704.252991,409.446350 705.596130,407.735474 709.484802,407.549866 
	C710.975464,407.478699 713.298828,406.157593 713.682800,404.921509 
	C715.137939,400.236725 715.772339,395.302094 717.107605,390.572113 
	C717.575500,388.914673 719.179077,387.577850 720.632080,386.047302 
	C721.000000,401.574707 721.000000,417.149414 721.000000,433.000000 
	C711.980957,433.000000 702.959167,433.000000 693.417969,432.673279 
	C692.267334,431.231445 691.636108,430.116333 691.004883,429.001221 
z"/>
<path fill="#E7F1F8" opacity="1.000000" stroke="none" 
	d="
M392.001221,401.002441 
	C392.486359,401.105255 393.173645,401.036560 393.427338,401.335693 
	C402.502686,412.036926 416.547394,415.190308 427.097076,423.584686 
	C430.109619,425.981812 432.333954,429.369507 434.959839,432.651489 
	C425.312439,433.000000 415.624878,433.000000 405.468842,432.580505 
	C404.674957,423.576019 399.301758,417.184967 395.524658,410.074554 
	C394.013306,407.229462 393.156158,404.036865 392.001221,401.002441 
z"/>
<path fill="#73B4F0" opacity="1.000000" stroke="none" 
	d="
M413.998779,27.000782 
	C417.302551,18.581900 420.606293,10.163019 423.955017,1.372070 
	C426.700012,1.000000 429.400024,1.000000 432.539917,1.405404 
	C432.615479,3.760863 432.384094,5.747391 431.861115,7.653929 
	C430.464386,12.745581 430.285675,18.934597 427.175812,22.625778 
	C421.610138,29.231815 424.891846,36.459316 423.468567,43.226093 
	C423.438385,43.369503 424.551971,43.753494 424.964691,44.323425 
	C422.856354,46.746483 420.915344,48.871365 418.613281,51.005737 
	C414.833588,53.677578 411.414978,56.339928 407.733978,58.760475 
	C408.307373,56.858025 408.857147,54.947838 410.041046,53.590942 
	C412.215271,51.098927 415.010101,49.121960 417.005157,46.516079 
	C417.606140,45.731083 416.850464,42.594101 415.977631,42.209099 
	C410.663208,39.864891 411.632385,35.869190 412.677155,31.730545 
	C413.077667,30.143860 413.555939,28.576790 413.998779,27.000782 
z"/>
<path fill="#7CBAF0" opacity="1.000000" stroke="none" 
	d="
M425.131989,44.025253 
	C424.551971,43.753494 423.438385,43.369503 423.468567,43.226093 
	C424.891846,36.459316 421.610138,29.231815 427.175812,22.625778 
	C430.285675,18.934597 430.464386,12.745581 431.861115,7.653929 
	C432.384094,5.747391 432.615479,3.760863 432.989929,1.405404 
	C436.361298,1.000000 439.722565,1.000000 443.541077,1.408233 
	C443.538483,9.896955 439.378632,16.643322 436.140656,23.730888 
	C434.449768,27.431995 435.615417,32.375786 431.282410,34.992943 
	C431.185638,35.051388 431.818115,36.317230 432.075562,37.348919 
	C432.035400,38.118690 432.030060,38.559406 432.009888,38.998188 
	C431.994995,38.996254 432.001007,39.025715 431.662476,39.052689 
	C429.259979,40.728195 427.195984,42.376724 425.131989,44.025253 
z"/>
<path fill="#E1EFF8" opacity="1.000000" stroke="none" 
	d="
M391.991760,400.635498 
	C393.156158,404.036865 394.013306,407.229462 395.524658,410.074554 
	C399.301758,417.184967 404.674957,423.576019 405.000183,432.580505 
	C402.299988,433.000000 399.599976,433.000000 396.450012,433.000000 
	C395.811646,432.036194 395.797546,430.994659 395.407684,430.120697 
	C391.807465,422.049530 388.032135,414.054016 384.585236,405.918915 
	C383.859894,404.207001 383.502441,401.586639 384.312836,400.127686 
	C386.203796,396.723450 384.968323,394.280182 383.040405,391.346313 
	C385.994904,394.087402 388.988586,397.177979 391.991760,400.635498 
z"/>
<path fill="#8CC0F4" opacity="1.000000" stroke="none" 
	d="
M432.110413,37.019863 
	C431.818115,36.317230 431.185638,35.051388 431.282410,34.992943 
	C435.615417,32.375786 434.449768,27.431995 436.140656,23.730888 
	C439.378632,16.643322 443.538483,9.896955 443.999146,1.408233 
	C450.021149,1.000000 456.042297,1.000000 462.524841,1.371681 
	C460.919830,4.340389 459.192078,7.330802 456.721161,9.457996 
	C450.248322,15.030406 443.244751,20.058815 441.006409,29.000973 
	C440.997864,29.001432 441.000610,29.014915 440.640381,29.011860 
	C437.556915,31.679159 434.833679,34.349510 432.110413,37.019863 
z"/>
<path fill="#C1DDF2" opacity="1.000000" stroke="none" 
	d="
M441.014923,29.000517 
	C443.244751,20.058815 450.248322,15.030406 456.721161,9.457996 
	C459.192078,7.330802 460.919830,4.340389 462.993134,1.371681 
	C467.024536,1.000000 471.049103,1.000000 475.536804,0.999991 
	C473.576172,2.982432 471.152374,4.964883 467.998108,6.981193 
	C463.167816,6.963910 461.621948,10.023981 459.994934,12.985165 
	C459.561066,12.998317 459.127197,13.011469 457.996246,13.025448 
	C454.199280,16.347115 451.099396,19.667953 447.756287,22.999138 
	C447.513062,23.009483 447.026337,23.022730 446.726074,23.160847 
	C445.625427,24.539000 444.825073,25.779032 443.958130,27.357605 
	C442.932678,28.130936 441.973816,28.565727 441.014923,29.000517 
z"/>
<path fill="#4B79D9" opacity="1.000000" stroke="none" 
	d="
M285.539368,1.000000 
	C285.090942,6.410785 279.543488,4.266947 276.610718,6.621399 
	C274.634277,8.208126 271.400330,8.228543 268.330688,8.919072 
	C269.015778,7.617332 270.102051,6.348635 271.181549,5.074240 
	C272.118622,3.967994 273.048096,2.855295 273.990479,1.372723 
	C277.692902,1.000000 281.385834,1.000000 285.539368,1.000000 
z"/>
<path fill="#F7FAFA" opacity="1.000000" stroke="none" 
	d="
M684.375000,433.000000 
	C682.596741,432.332001 681.193420,431.664001 679.396301,430.994324 
	C680.224182,430.453156 681.400940,429.664429 682.678467,429.433807 
	C684.490234,429.106781 686.376343,429.190918 688.561829,429.376648 
	C688.262024,430.769318 687.630981,431.884644 687.000000,433.000000 
	C686.250000,433.000000 685.500000,433.000000 684.375000,433.000000 
z"/>
<path fill="#ECF1F6" opacity="1.000000" stroke="none" 
	d="
M687.428467,433.000000 
	C687.630981,431.884644 688.262024,430.769318 688.943726,429.327576 
	C689.441223,429.001068 689.887939,429.000916 690.669800,429.000977 
	C691.636108,430.116333 692.267334,431.231445 692.949280,432.673279 
	C691.285645,433.000000 689.571289,433.000000 687.428467,433.000000 
z"/>
<path fill="#C1DDF2" opacity="1.000000" stroke="none" 
	d="
M371.991730,431.954956 
	C372.001862,432.129089 372.011993,432.303192 372.011047,432.738647 
	C372.000000,433.000000 371.500000,433.000000 371.250000,433.000000 
	C371.097229,432.837036 371.194458,432.674103 371.474365,432.233032 
	C371.657074,431.954834 371.991730,431.954956 371.991730,431.954956 
z"/>
<path fill="#C8E6F3" opacity="1.000000" stroke="none" 
	d="
M55.960327,201.053421 
	C55.329624,191.354294 53.537048,181.558121 54.337242,171.978516 
	C55.574757,157.163483 58.583874,142.496460 60.946358,127.399445 
	C105.090591,119.429878 142.387009,99.081741 173.869537,67.593140 
	C193.456955,48.001953 216.179138,32.758907 240.872040,20.403194 
	C244.746811,18.464354 249.072052,17.425787 253.560272,16.388571 
	C252.123672,19.541046 250.333725,22.287922 248.504974,25.008717 
	C239.331802,38.656498 230.148483,52.297474 220.728836,66.120346 
	C220.270035,66.847809 220.051117,67.395752 219.619827,68.107323 
	C219.219650,68.763969 219.031876,69.256996 218.541519,69.877998 
	C218.181549,71.319771 218.124146,72.633568 218.066742,73.947365 
	C215.091522,77.303635 211.407639,80.261620 209.259918,84.082977 
	C198.136490,103.874428 185.433136,122.590721 171.126999,140.158966 
	C164.574814,148.205200 156.843384,155.289062 149.690216,162.850464 
	C148.689392,163.908417 147.937759,165.202087 146.660782,166.732513 
	C144.340881,168.371490 142.462952,169.715042 140.515732,170.949280 
	C130.432526,177.340530 120.709938,184.433304 110.150337,189.910080 
	C93.284561,198.657623 74.802086,201.101089 55.960327,201.053421 
z"/>
<path fill="#6DB3F2" opacity="1.000000" stroke="none" 
	d="
M218.844101,69.750015 
	C219.031876,69.256996 219.219650,68.763969 219.899292,67.964928 
	C220.583664,67.086212 220.776184,66.513519 220.968719,65.940826 
	C230.148483,52.297474 239.331802,38.656498 248.504974,25.008717 
	C250.333725,22.287922 252.123672,19.541046 253.952515,16.458927 
	C256.112274,11.965684 260.165039,11.453954 264.548096,11.056536 
	C264.984467,11.565355 264.997467,11.783104 265.010437,12.000854 
	C265.010437,12.000854 265.008118,12.499718 264.622253,12.798178 
	C260.779144,13.586199 259.792847,15.532889 259.919434,18.984669 
	C260.268524,28.503101 271.760559,40.289669 281.773010,40.986225 
	C286.891876,41.342346 292.145782,41.051609 297.105927,42.126884 
	C307.634491,44.409306 318.523743,41.268021 329.054352,45.599945 
	C338.769592,49.596474 349.200043,51.942745 359.431366,54.563381 
	C365.623230,56.149361 372.002197,57.398087 378.360596,57.804283 
	C382.697906,58.081360 387.200317,56.866333 391.504089,55.809948 
	C392.582825,55.545162 393.180969,53.322437 394.000000,51.999557 
	C395.094696,51.124161 396.375854,50.403172 397.251038,49.346054 
	C400.648834,45.241890 403.974609,41.074345 407.204102,36.836605 
	C408.373627,35.301998 409.166382,33.484776 410.188660,31.832159 
	C411.180115,30.229347 412.245544,28.672277 413.638672,27.047955 
	C413.555939,28.576790 413.077667,30.143860 412.677155,31.730545 
	C411.632385,35.869190 410.663208,39.864891 415.977631,42.209099 
	C416.850464,42.594101 417.606140,45.731083 417.005157,46.516079 
	C415.010101,49.121960 412.215271,51.098927 410.041046,53.590942 
	C408.857147,54.947838 408.307373,56.858025 407.692749,59.107468 
	C405.812134,61.453671 403.513489,63.026455 401.653412,65.010429 
	C398.633057,68.231880 395.900024,71.722664 393.045715,75.099762 
	C392.919128,75.413765 392.709076,75.655190 391.837830,75.909615 
	C390.507324,76.663246 389.754578,77.331314 389.001862,77.999390 
	C389.001862,77.999390 389.000000,78.000000 388.646484,78.002991 
	C387.534637,78.679413 386.776306,79.352837 386.017944,80.026268 
	C386.017944,80.026268 385.998779,80.002159 385.705383,80.025116 
	C384.957977,80.402771 384.503937,80.757462 384.049896,81.112167 
	C384.049896,81.112167 384.028290,81.013573 383.693634,81.024857 
	C381.938446,82.119171 380.517914,83.202202 379.097351,84.285233 
	C378.958008,84.566040 378.743927,84.767433 377.929871,84.969482 
	C376.951019,85.417328 376.497375,85.785103 376.043732,86.152878 
	C375.608215,86.446365 375.172699,86.739853 374.142944,87.055695 
	C373.055756,87.429657 372.562775,87.781265 372.069794,88.132866 
	C372.069794,88.132858 372.004913,88.014946 371.736816,88.052155 
	C371.005981,88.442711 370.543243,88.796066 370.080505,89.149414 
	C370.080505,89.149422 370.013367,89.084450 369.820221,89.160988 
	C369.417572,89.489937 369.208099,89.742355 368.998596,89.994774 
	C368.527222,90.309235 368.055847,90.623688 367.119873,90.750969 
	C366.100586,91.026154 365.545929,91.488518 364.991241,91.950882 
	C364.991241,91.950882 364.641083,92.106850 364.038177,92.080750 
	C357.621399,94.378677 351.807495,96.702713 345.993622,99.026749 
	C345.993622,99.026749 345.632935,99.137558 345.061035,99.092834 
	C343.318176,99.594826 342.147156,100.141548 340.976166,100.688278 
	C340.538391,100.785431 340.100616,100.882584 339.069244,100.713028 
	C327.433655,100.966019 316.390411,101.460831 305.350830,102.027275 
	C303.246185,102.135269 301.156036,102.526131 299.059204,102.786484 
	C298.602356,102.788818 298.145508,102.791161 297.235962,102.383377 
	C293.204254,101.588928 289.625183,101.204597 286.046143,100.820267 
	C285.560272,100.789337 285.074402,100.758408 284.115112,100.495514 
	C283.444611,100.121765 283.225433,100.036743 282.984131,100.008484 
	C282.984131,100.008484 282.999573,99.998306 282.774139,99.718384 
	C278.984924,98.649567 275.421143,97.860672 271.857361,97.071777 
	C271.857361,97.071777 271.414703,97.065727 270.986572,96.739799 
	C269.247131,96.005280 267.935883,95.596687 266.624603,95.188087 
	C266.624603,95.188087 266.321838,95.251137 265.960175,94.902740 
	C258.935303,92.098450 252.272110,89.642563 245.608917,87.186676 
	C245.608917,87.186684 245.296143,87.202148 244.988647,86.812927 
	C243.364731,85.995308 242.048294,85.566917 240.731873,85.138527 
	C239.959610,84.895515 239.187332,84.652504 238.147049,83.836670 
	C236.220673,82.547081 234.562332,81.830315 232.903976,81.113548 
	C232.903976,81.113548 232.973846,81.006355 232.783096,80.784637 
	C231.968048,80.422806 231.343765,80.282692 230.719467,80.142578 
	C230.719467,80.142578 230.347321,80.129288 230.113312,79.710602 
	C228.230362,78.550896 226.581436,77.809860 224.932510,77.068832 
	C224.932510,77.068832 224.986908,77.002342 224.819275,76.781670 
	C224.088257,76.387070 223.524872,76.213135 222.961487,76.039200 
	C222.961487,76.039207 223.001221,76.013649 222.942413,75.689606 
	C221.537094,73.493713 220.190598,71.621864 218.844101,69.750015 
z"/>
<path fill="#6DB3F3" opacity="1.000000" stroke="none" 
	d="
M55.969421,201.483429 
	C74.802086,201.101089 93.284561,198.657623 110.150337,189.910080 
	C120.709938,184.433304 130.432526,177.340530 140.515732,170.949280 
	C142.462952,169.715042 144.340881,168.371490 146.597336,167.079468 
	C147.625061,171.986588 148.622955,176.872742 148.932083,181.802078 
	C150.215302,202.263779 146.145035,222.143936 141.681381,241.905594 
	C136.952667,262.840790 133.371246,283.887787 133.173813,305.404114 
	C133.152664,307.708160 133.580063,310.016357 133.902252,312.942200 
	C134.005096,313.561798 133.958664,313.970276 133.958664,313.970276 
	C128.792130,315.742218 123.626755,317.517639 118.458298,319.283966 
	C116.907661,319.813934 115.348396,320.318573 113.423164,320.781799 
	C108.488007,315.112457 103.923271,309.495636 99.357422,303.879761 
	C79.012184,278.855682 65.454903,250.591812 58.958729,218.987000 
	C57.796085,213.330597 56.963497,207.606339 55.969421,201.483429 
z"/>
<path fill="#C8E6F3" opacity="1.000000" stroke="none" 
	d="
M372.049866,431.585999 
	C371.991730,431.954956 371.657074,431.954834 371.490265,431.948853 
	C371.323456,431.942902 371.140961,431.957397 371.040741,431.544128 
	C369.244659,429.757965 367.548767,428.385071 365.852905,427.012177 
	C365.852905,427.012177 365.489258,426.776886 365.763672,426.358215 
	C365.701874,424.275848 365.729218,422.419495 364.967285,420.981323 
	C361.451141,414.344299 355.515472,408.118195 354.587830,401.190369 
	C353.285645,391.465240 346.939453,389.202789 340.227112,385.819092 
	C333.545685,382.451050 325.084564,383.998138 319.277008,378.087067 
	C318.891541,377.694672 316.473572,379.299255 314.716553,379.925690 
	C314.060150,379.802368 313.688110,379.728302 313.316101,379.654236 
	C313.316101,379.654236 313.213074,379.707031 313.206787,379.423553 
	C312.515747,378.680542 311.830994,378.220978 311.146240,377.761444 
	C311.146240,377.761444 311.155579,377.876343 311.096680,377.523499 
	C309.725555,376.071381 308.413330,374.972107 307.101135,373.872864 
	C307.101135,373.872864 307.028137,373.920807 306.991577,373.675110 
	C306.653809,373.260101 306.352600,373.090759 306.051361,372.921417 
	C306.051361,372.921417 306.043121,373.001678 305.921143,372.659546 
	C303.232391,370.165985 300.665619,368.014587 298.098816,365.863190 
	C298.098816,365.863190 298.006866,365.935333 297.938385,365.655640 
	C297.252350,364.916138 296.634796,364.456299 296.017242,363.996490 
	C296.017242,363.996490 296.002869,363.997559 295.922546,363.763885 
	C295.648132,363.236969 295.375275,363.090302 295.023590,363.090240 
	C295.023590,363.090240 294.826508,362.868744 294.508362,362.612732 
	C293.818237,362.182251 293.446228,362.007751 293.074249,361.833252 
	C293.074249,361.833252 293.140900,361.912506 293.081055,361.577209 
	C292.367859,360.776031 291.714508,360.310120 291.061188,359.844208 
	C290.037109,358.906036 289.013000,357.967865 287.538208,356.710754 
	C286.739471,356.221771 286.391449,356.051697 286.043427,355.881622 
	C286.043427,355.881622 286.041809,355.959808 285.989349,355.703766 
	C285.635773,355.281128 285.334656,355.114563 285.033539,354.947968 
	C284.825867,354.682678 284.618195,354.417389 284.020508,353.830688 
	C283.112213,353.278473 282.593872,353.047638 282.075562,352.816833 
	C282.075562,352.816833 282.053406,352.917389 282.017944,352.658081 
	C281.670837,352.229492 281.359222,352.060181 281.047577,351.890869 
	C281.047577,351.890869 281.030212,351.967285 280.976807,351.711975 
	C280.621765,351.301788 280.320160,351.146942 280.018555,350.992126 
	C280.018555,350.992096 280.003326,350.996613 279.845825,350.739227 
	C279.160828,350.244049 278.633362,350.006287 278.105896,349.768524 
	C278.105896,349.768524 278.086700,349.891388 278.044434,349.566589 
	C277.055634,348.732758 276.109100,348.223724 275.162537,347.714691 
	C275.162537,347.714691 275.218170,347.804443 275.150452,347.473938 
	C274.416077,346.721039 273.749420,346.298706 273.082794,345.876343 
	C273.082794,345.876343 273.026123,345.937592 272.969849,345.698547 
	C272.610565,345.308929 272.307556,345.158386 272.004578,345.007812 
	C272.004578,345.007812 272.001038,344.997559 271.875366,344.769409 
	C271.169342,344.207855 270.588928,343.874420 270.008545,343.541016 
	C269.885132,343.406097 269.761719,343.271149 269.211914,342.772278 
	C268.223419,342.117035 267.661316,341.825745 267.099243,341.534454 
	C267.013000,341.265839 266.837280,341.083405 266.249573,340.734772 
	C265.615631,340.339081 265.304199,340.195770 264.992767,340.052460 
	C264.992767,340.052460 264.996338,339.996338 264.810211,339.723816 
	C263.460205,338.886566 262.296295,338.321777 261.132416,337.756989 
	C261.132416,337.756989 261.083649,337.858002 261.059082,337.598419 
	C260.706787,337.184174 260.379120,337.029541 260.051422,336.874908 
	C260.051422,336.874908 260.043396,336.964355 259.921082,336.663025 
	C258.880280,335.884613 257.961731,335.407532 257.043182,334.930450 
	C257.043182,334.930450 256.998047,334.991272 256.862854,334.686676 
	C255.175156,333.549957 253.622696,332.717834 252.070221,331.885712 
	C252.070221,331.885712 252.003159,331.956787 251.889633,331.681152 
	C251.216629,331.196228 250.657166,330.986938 250.097687,330.777649 
	C250.097687,330.777649 250.065247,330.881683 250.025238,330.629852 
	C249.657959,330.252899 249.330688,330.127777 249.003418,330.002686 
	C248.540085,329.657715 248.076736,329.312744 247.166901,328.793884 
	C246.720383,328.620026 246.319626,328.625000 246.319626,328.625000 
	C246.319626,328.625000 246.184021,328.670349 246.125854,328.420502 
	C244.712845,327.474884 243.358017,326.779114 242.003204,326.083344 
	C242.003204,326.083344 241.770370,325.858276 241.384262,325.584778 
	C239.332748,324.557037 237.667328,323.802795 236.001923,323.048584 
	C236.001923,323.048584 235.786667,322.833710 235.408966,322.582794 
	C234.384094,322.143646 233.736938,321.955414 233.089767,321.767181 
	C233.089767,321.767181 233.072708,321.883057 233.036713,321.624817 
	C232.671692,321.263092 232.342651,321.159668 232.013626,321.056244 
	C232.013626,321.056244 231.710953,320.854401 231.308151,320.621582 
	C230.282074,320.217316 229.658798,320.045837 229.035522,319.874329 
	C229.035522,319.874329 229.028091,319.957123 228.890106,319.688110 
	C228.179733,319.245758 227.607346,319.072418 227.034943,318.899078 
	C227.034943,318.899078 227.011047,318.979492 226.817688,318.686829 
	C224.116882,317.520599 221.609436,316.647064 219.101990,315.773499 
	C219.101990,315.773499 219.051849,315.859222 218.927338,315.596252 
	C218.208084,315.205170 217.613358,315.077087 217.018616,314.949036 
	C216.516296,314.695740 216.013977,314.442444 214.928192,314.014038 
	C212.565292,313.294403 210.785858,312.749847 209.006424,312.205322 
	C208.832779,312.135803 208.659134,312.066284 207.917206,311.789703 
	C196.577408,309.784821 185.805923,307.987000 175.034424,306.189178 
	C176.301010,305.096649 177.391739,303.485809 178.859970,302.987671 
	C212.240005,291.663147 245.150192,293.426392 277.179352,307.751587 
	C289.791382,313.392395 302.247223,319.745361 313.816864,327.249939 
	C325.009155,334.509766 335.239319,343.354889 345.387939,352.089478 
	C353.521484,359.089752 360.899811,366.967499 368.813782,375.085754 
	C370.348236,377.137421 371.682159,378.559174 373.016083,379.980957 
	C373.016083,379.980957 373.006714,379.993591 373.013550,379.988647 
	C372.897583,381.132172 373.216919,382.708435 372.583618,383.362976 
	C366.284027,389.873688 368.900055,397.434601 370.495636,404.461243 
	C372.095520,411.506561 375.171051,418.207764 377.290100,425.154297 
	C377.597382,426.161469 376.395355,427.883453 375.493286,428.931793 
	C374.636658,429.927399 373.257446,430.473358 372.049866,431.585999 
z"/>
<path fill="#ECF1F6" opacity="1.000000" stroke="none" 
	d="
M649.635498,42.079807 
	C648.674133,47.170746 652.255981,49.245518 655.932251,51.650871 
	C646.648376,56.341305 637.308960,60.703842 627.947021,65.017593 
	C620.387756,68.500725 612.456665,68.924271 604.247253,68.432907 
	C601.811829,68.287140 597.294006,70.154297 597.038757,71.660004 
	C595.322144,81.784912 587.345032,83.573311 579.648193,85.489990 
	C575.751038,86.460472 573.218750,88.316063 571.145264,91.598770 
	C568.177979,96.296806 566.566101,95.987495 562.687439,91.827705 
	C561.373474,90.418518 558.529358,90.263359 556.324890,89.934265 
	C555.308838,89.782578 553.955383,91.168060 553.084961,90.875290 
	C544.214172,87.891571 534.758667,92.711380 525.754822,88.049965 
	C518.985352,84.545326 512.022827,82.127541 507.272858,75.443275 
	C505.793396,73.361351 501.354614,72.552704 498.285583,72.585014 
	C488.937042,72.683449 479.597321,73.505920 470.250885,73.982185 
	C467.191101,74.138107 464.285797,73.920723 463.684265,78.296028 
	C463.536835,79.368393 460.151672,81.181808 459.023254,80.731102 
	C453.678833,78.596542 450.589447,82.205307 446.976318,84.649437 
	C446.566284,84.926796 446.278015,85.443680 445.841644,85.612267 
	C443.920898,86.354248 441.966553,87.009178 440.024353,87.695663 
	C439.458466,86.023567 438.137848,84.156204 438.507843,82.726242 
	C439.031403,80.702576 440.702148,78.919022 442.103790,77.214760 
	C442.509399,76.721581 443.684082,76.894440 444.487854,76.689941 
	C452.110565,74.750526 454.768646,72.500298 454.407471,65.038879 
	C454.264282,62.081314 450.684113,58.447941 447.734650,56.685818 
	C444.204742,54.576912 439.671844,54.152721 435.581543,52.970409 
	C434.824921,52.751709 433.942169,52.577412 433.398590,52.077259 
	C429.900879,48.859035 427.458221,49.190239 424.025116,52.738174 
	C422.619232,54.191093 420.337006,54.796040 418.157654,55.379791 
	C418.289429,54.006752 418.716919,53.040668 419.471558,52.012268 
	C421.510681,50.951973 423.222656,49.953999 425.262329,48.943420 
	C426.394165,48.287617 427.198303,47.644413 428.365234,46.995365 
	C429.818695,45.993061 430.909332,44.996605 432.249298,43.999382 
	C432.498596,43.998615 432.997223,43.997253 432.997223,43.997253 
	C442.455017,41.129288 451.763794,36.766323 461.411621,35.804375 
	C471.513184,34.797184 481.862640,36.905251 488.803070,46.449615 
	C492.471863,51.494865 497.740997,53.776524 504.089417,55.411865 
	C510.245941,56.997776 516.351074,61.096306 520.989868,65.618622 
	C525.751526,70.260696 523.739502,75.230080 517.374817,79.127106 
	C519.481140,79.287460 521.610596,79.308769 523.686401,79.652962 
	C525.294861,79.919655 527.928162,80.229889 528.228455,81.140129 
	C530.020020,86.570915 534.755188,86.535698 538.812683,86.873833 
	C547.479614,87.596107 556.207886,87.548149 564.897217,88.053474 
	C568.524719,88.264427 570.463989,86.978859 572.315369,83.747520 
	C574.548950,79.848923 576.675537,76.219055 577.983826,71.728317 
	C579.748535,65.670929 586.253296,66.828400 591.161743,66.020378 
	C597.792114,64.928894 604.488770,64.186584 611.061523,62.831570 
	C612.980652,62.435936 614.416260,60.022606 616.357727,59.325344 
	C618.765564,58.460537 621.713135,57.549286 623.996643,58.191162 
	C629.774048,59.815132 634.411865,58.382782 637.838440,53.491940 
	C639.331726,51.360638 641.498169,48.991653 643.820190,48.316135 
	C647.326111,47.296162 647.700256,44.387356 649.635498,42.079807 
z"/>
<path fill="#7CBAF0" opacity="1.000000" stroke="none" 
	d="
M419.144409,52.074585 
	C418.716919,53.040668 418.289429,54.006752 417.766479,55.270996 
	C417.671021,55.569164 417.690765,55.707451 417.402771,55.788467 
	C415.679138,57.513313 414.243439,59.157139 412.807770,60.800964 
	C412.807770,60.800964 412.902527,60.908020 412.498596,60.820457 
	C409.893799,62.760487 407.692963,64.788078 405.492096,66.815674 
	C405.037384,66.937378 404.582672,67.059082 403.675110,67.509735 
	C402.075897,68.861656 400.929504,69.884636 399.783142,70.907623 
	C397.757843,72.258186 395.732574,73.608742 393.376526,75.029526 
	C395.900024,71.722664 398.633057,68.231880 401.653412,65.010429 
	C403.513489,63.026455 405.812134,61.453671 407.955109,59.349266 
	C411.414978,56.339928 414.833588,53.677578 418.649475,51.276352 
	C419.079315,51.716511 419.111877,51.895550 419.144409,52.074585 
z"/>
<path fill="#7CBAF0" opacity="1.000000" stroke="none" 
	d="
M299.464844,102.888428 
	C301.156036,102.526131 303.246185,102.135269 305.350830,102.027275 
	C316.390411,101.460831 327.433655,100.966019 338.731995,100.709442 
	C326.087463,104.328186 313.043060,104.901306 299.464844,102.888428 
z"/>
<path fill="#3C52D9" opacity="1.000000" stroke="none" 
	d="
M174.694946,306.252502 
	C185.805923,307.987000 196.577408,309.784821 207.636978,311.803436 
	C201.427780,311.020081 194.959946,309.700226 188.425827,309.091522 
	C180.224808,308.327484 171.969498,308.146271 163.407410,307.478973 
	C163.233337,307.172974 163.389481,307.101562 164.154999,307.008331 
	C165.497086,306.886292 166.229813,306.786011 166.962555,306.685760 
	C168.415771,306.599091 169.868973,306.512451 171.918335,306.394226 
	C172.671600,306.306030 172.828735,306.249329 172.985855,306.192657 
	C173.442383,306.233704 173.898926,306.274750 174.694946,306.252502 
z"/>
<path fill="#3C52D9" opacity="1.000000" stroke="none" 
	d="
M134.384354,313.980347 
	C133.958664,313.970276 134.005096,313.561798 133.997467,313.356384 
	C142.723984,311.215302 151.458130,309.279633 160.594269,307.393890 
	C157.657364,308.356628 154.335175,309.337250 150.975708,310.166748 
	C145.600159,311.493988 140.199860,312.721039 134.384354,313.980347 
z"/>
<path fill="#7CBAF0" opacity="1.000000" stroke="none" 
	d="
M245.794510,87.490952 
	C252.272110,89.642563 258.935303,92.098450 265.816284,94.846100 
	C259.349396,92.690315 252.664749,90.242767 245.794510,87.490952 
z"/>
<path fill="#7CBAF0" opacity="1.000000" stroke="none" 
	d="
M346.395020,99.034859 
	C351.807495,96.702713 357.621399,94.378677 363.846924,92.093666 
	C358.437866,94.436111 352.617157,96.739540 346.395020,99.034859 
z"/>
<path fill="#E1EFF8" opacity="1.000000" stroke="none" 
	d="
M381.007446,388.614197 
	C379.031830,386.559448 377.054291,384.123718 375.037903,381.342468 
	C378.509216,382.157288 380.928192,384.223419 381.007446,388.614197 
z"/>
<path fill="#7CBAF0" opacity="1.000000" stroke="none" 
	d="
M286.394897,101.007034 
	C289.625183,101.204597 293.204254,101.588928 296.903748,102.296356 
	C293.597321,102.144234 290.170471,101.669022 286.394897,101.007034 
z"/>
<path fill="#ECF1F6" opacity="1.000000" stroke="none" 
	d="
M405.885468,66.843613 
	C407.692963,64.788078 409.893799,62.760487 412.446533,60.762657 
	C410.625244,62.818794 408.452026,64.845169 405.885468,66.843613 
z"/>
<path fill="#7CBAF0" opacity="1.000000" stroke="none" 
	d="
M218.541519,69.877991 
	C220.190598,71.621864 221.537094,73.493713 222.922928,75.707382 
	C221.534546,75.438004 220.106812,74.826797 218.372925,74.081482 
	C218.124146,72.633568 218.181549,71.319771 218.541519,69.877991 
z"/>
<path fill="#7CBAF0" opacity="1.000000" stroke="none" 
	d="
M272.124817,97.329926 
	C275.421143,97.860672 278.984924,98.649567 282.772339,99.726944 
	C279.461395,99.206306 275.926819,98.397186 272.124817,97.329926 
z"/>
<path fill="#D4E5F5" opacity="1.000000" stroke="none" 
	d="
M373.010498,379.618225 
	C371.682159,378.559174 370.348236,377.137421 369.014465,375.348938 
	C370.344696,376.406708 371.674805,377.831116 373.010498,379.618225 
z"/>
<path fill="#ECF1F6" opacity="1.000000" stroke="none" 
	d="
M413.170044,60.834694 
	C414.243439,59.157139 415.679138,57.513313 417.448120,55.841618 
	C416.365021,57.498638 414.948669,59.183529 413.170044,60.834694 
z"/>
<path fill="#7CBAF0" opacity="1.000000" stroke="none" 
	d="
M225.105042,77.351891 
	C226.581436,77.809860 228.230362,78.550896 229.941315,79.639252 
	C228.428101,79.202713 226.852829,78.418831 225.105042,77.351891 
z"/>
<path fill="#7CBAF0" opacity="1.000000" stroke="none" 
	d="
M379.436523,84.218292 
	C380.517914,83.202202 381.938446,82.119171 383.725586,81.063927 
	C382.653412,82.111588 381.214569,83.131470 379.436523,84.218292 
z"/>
<path fill="#ECF1F6" opacity="1.000000" stroke="none" 
	d="
M400.179688,70.931747 
	C400.929504,69.884636 402.075897,68.861656 403.532837,67.709000 
	C402.754333,68.704834 401.665283,69.830345 400.179688,70.931747 
z"/>
<path fill="#7CBAF0" opacity="1.000000" stroke="none" 
	d="
M233.063644,81.406418 
	C234.562332,81.830315 236.220673,82.547081 237.950897,83.600830 
	C236.422943,83.191635 234.823135,82.445465 233.063644,81.406418 
z"/>
<path fill="#7CBAF0" opacity="1.000000" stroke="none" 
	d="
M341.307617,100.729706 
	C342.147156,100.141548 343.318176,99.594826 344.872406,99.089523 
	C344.050140,99.677666 342.844604,100.224403 341.307617,100.729706 
z"/>
<path fill="#7CBAF0" opacity="1.000000" stroke="none" 
	d="
M240.952362,85.409767 
	C242.048294,85.566917 243.364731,85.995308 244.846100,86.748161 
	C243.731644,86.608757 242.452255,86.144882 240.952362,85.409767 
z"/>
<path fill="#7CBAF0" opacity="1.000000" stroke="none" 
	d="
M389.314087,77.958069 
	C389.754578,77.331314 390.507324,76.663246 391.607178,75.987801 
	C391.178284,76.625862 390.402313,77.271301 389.314087,77.958069 
z"/>
<path fill="#7CBAF0" opacity="1.000000" stroke="none" 
	d="
M386.332886,79.991867 
	C386.776306,79.352837 387.534637,78.679413 388.645996,78.003906 
	C388.215271,78.653717 387.431519,79.305595 386.332886,79.991867 
z"/>
<path fill="#7CBAF0" opacity="1.000000" stroke="none" 
	d="
M266.863037,95.449501 
	C267.935883,95.596687 269.247131,96.005280 270.773743,96.678925 
	C269.693207,96.532967 268.397308,96.121941 266.863037,95.449501 
z"/>
<path fill="#7CBAF0" opacity="1.000000" stroke="none" 
	d="
M365.286743,91.945435 
	C365.545929,91.488518 366.100586,91.026154 366.828918,90.780853 
	C366.529114,91.311935 366.055664,91.625969 365.286743,91.945435 
z"/>
<path fill="#C8E6F3" opacity="1.000000" stroke="none" 
	d="
M166.751312,306.498444 
	C166.229813,306.786011 165.497086,306.886292 164.397552,306.921722 
	C164.867203,306.674988 165.703644,306.493042 166.751312,306.498444 
z"/>
<path fill="#7CBAF0" opacity="1.000000" stroke="none" 
	d="
M384.347137,81.084442 
	C384.503937,80.757462 384.957977,80.402771 385.716919,80.033493 
	C385.562683,80.364853 385.103546,80.710793 384.347137,81.084442 
z"/>
<path fill="#7CBAF0" opacity="1.000000" stroke="none" 
	d="
M230.933960,80.376793 
	C231.343765,80.282692 231.968048,80.422806 232.762939,80.845322 
	C232.338516,80.955490 231.743484,80.783249 230.933960,80.376793 
z"/>
<path fill="#7CBAF0" opacity="1.000000" stroke="none" 
	d="
M376.341614,86.110458 
	C376.497375,85.785103 376.951019,85.417328 377.714294,85.031082 
	C377.562469,85.364426 377.101013,85.716240 376.341614,86.110458 
z"/>
<path fill="#7CBAF0" opacity="1.000000" stroke="none" 
	d="
M372.379730,88.118057 
	C372.562775,87.781265 373.055756,87.429657 373.875183,87.090103 
	C373.697632,87.435852 373.193665,87.769539 372.379730,88.118057 
z"/>
<path fill="#7CBAF0" opacity="1.000000" stroke="none" 
	d="
M370.383911,89.143753 
	C370.543243,88.796066 371.005981,88.442711 371.781433,88.102509 
	C371.625214,88.456467 371.156281,88.797279 370.383911,89.143753 
z"/>
<path fill="#7CBAF0" opacity="1.000000" stroke="none" 
	d="
M223.133545,76.282043 
	C223.524872,76.213135 224.088257,76.387070 224.807068,76.822830 
	C224.410217,76.898071 223.857910,76.711479 223.133545,76.282043 
z"/>
<path fill="#7CBAF0" opacity="1.000000" stroke="none" 
	d="
M283.086060,100.174210 
	C283.225433,100.036743 283.444611,100.121765 283.766724,100.382233 
	C283.891724,100.500916 283.510681,100.548424 283.510681,100.548424 
	C283.510681,100.548424 283.188019,100.339928 283.086060,100.174210 
z"/>
<path fill="#C8E6F3" opacity="1.000000" stroke="none" 
	d="
M172.914810,305.996216 
	C172.828735,306.249329 172.671600,306.306030 172.272324,306.298676 
	C172.301376,306.089661 172.572571,305.944702 172.914810,305.996216 
z"/>
<path fill="#7CBAF0" opacity="1.000000" stroke="none" 
	d="
M369.244690,89.928009 
	C369.208099,89.742355 369.417572,89.489937 369.866882,89.163528 
	C369.901367,89.346771 369.696075,89.604012 369.244690,89.928009 
z"/>
<path fill="#C1DDF2" opacity="1.000000" stroke="none" 
	d="
M315.000977,379.974976 
	C316.473572,379.299255 318.891541,377.694672 319.277008,378.087067 
	C325.084564,383.998138 333.545685,382.451050 340.227112,385.819092 
	C346.939453,389.202789 353.285645,391.465240 354.587830,401.190369 
	C355.515472,408.118195 361.451141,414.344299 364.967285,420.981323 
	C365.729218,422.419495 365.701874,424.275848 365.682739,426.157349 
	C360.795410,422.655212 356.263397,418.935242 351.281342,414.780518 
	C345.531952,409.312225 340.211060,404.301086 334.938660,399.239471 
	C328.272125,392.839478 321.645050,386.398376 315.000977,379.974976 
z"/>
<path fill="#3C52D9" opacity="1.000000" stroke="none" 
	d="
M314.716553,379.925720 
	C321.645050,386.398376 328.272125,392.839478 334.938660,399.239471 
	C340.211060,404.301086 345.531952,409.312225 350.976501,414.650452 
	C349.888672,414.596405 348.361145,414.582275 347.471191,413.821930 
	C342.442749,409.525696 337.688202,404.903595 332.585754,400.701599 
	C330.225006,398.757477 326.673035,398.051971 324.737274,395.842224 
	C320.515625,391.023102 316.983368,385.600098 313.242737,380.039062 
	C313.688110,379.728302 314.060150,379.802368 314.716553,379.925720 
z"/>
<path fill="#3C52D9" opacity="1.000000" stroke="none" 
	d="
M298.101807,366.220795 
	C300.665619,368.014587 303.232391,370.165985 305.935181,372.620300 
	C303.415680,370.808289 300.760254,368.693359 298.101807,366.220795 
z"/>
<path fill="#C1DDF2" opacity="1.000000" stroke="none" 
	d="
M365.938385,427.341797 
	C367.548767,428.385071 369.244659,429.757965 371.011169,431.457489 
	C369.395874,430.413208 367.709869,429.042297 365.938385,427.341797 
z"/>
<path fill="#3C52D9" opacity="1.000000" stroke="none" 
	d="
M219.222900,316.129578 
	C221.609436,316.647064 224.116882,317.520599 226.852264,318.663025 
	C224.501404,318.116516 221.922623,317.301086 219.222900,316.129578 
z"/>
<path fill="#3C52D9" opacity="1.000000" stroke="none" 
	d="
M307.104919,374.231934 
	C308.413330,374.972107 309.725555,376.071381 311.132446,377.478302 
	C309.854340,376.720978 308.481506,375.655975 307.104919,374.231934 
z"/>
<path fill="#3C52D9" opacity="1.000000" stroke="none" 
	d="
M209.081924,312.527283 
	C210.785858,312.749847 212.565292,313.294403 214.636826,314.035706 
	C213.005096,313.771362 211.081268,313.310303 209.081924,312.527283 
z"/>
<path fill="#3C52D9" opacity="1.000000" stroke="none" 
	d="
M236.072556,323.403992 
	C237.667328,323.802795 239.332748,324.557037 241.222351,325.585724 
	C239.678757,325.159912 237.910980,324.459656 236.072556,323.403992 
z"/>
<path fill="#3C52D9" opacity="1.000000" stroke="none" 
	d="
M252.103760,332.245117 
	C253.622696,332.717834 255.175156,333.549957 256.895355,334.667358 
	C255.421143,334.169922 253.779221,333.387238 252.103760,332.245117 
z"/>
<path fill="#3C52D9" opacity="1.000000" stroke="none" 
	d="
M242.065231,326.412170 
	C243.358017,326.779114 244.712845,327.474884 246.151550,328.487213 
	C244.866043,328.116180 243.496643,327.428589 242.065231,326.412170 
z"/>
<path fill="#3C52D9" opacity="1.000000" stroke="none" 
	d="
M261.226898,338.098633 
	C262.296295,338.321777 263.460205,338.886566 264.785034,339.736328 
	C263.737793,339.494293 262.529572,338.967285 261.226898,338.098633 
z"/>
<path fill="#3C52D9" opacity="1.000000" stroke="none" 
	d="
M257.089508,335.284790 
	C257.961731,335.407532 258.880280,335.884613 259.956482,336.635376 
	C259.121399,336.485748 258.128601,336.062439 257.089508,335.284790 
z"/>
<path fill="#3C52D9" opacity="1.000000" stroke="none" 
	d="
M275.263245,348.027008 
	C276.109100,348.223724 277.055634,348.732758 278.106140,349.559082 
	C277.261383,349.363983 276.312683,348.851654 275.263245,348.027008 
z"/>
<path fill="#3C52D9" opacity="1.000000" stroke="none" 
	d="
M273.108307,346.223724 
	C273.749420,346.298706 274.416077,346.721039 275.178101,347.428955 
	C274.560242,347.333374 273.847015,346.952240 273.108307,346.223724 
z"/>
<path fill="#3C52D9" opacity="1.000000" stroke="none" 
	d="
M291.090027,360.189575 
	C291.714508,360.310120 292.367859,360.776031 293.113037,361.536530 
	C292.509583,361.399048 291.814240,360.966980 291.090027,360.189575 
z"/>
<path fill="#3C52D9" opacity="1.000000" stroke="none" 
	d="
M296.062927,364.321320 
	C296.634796,364.456299 297.252350,364.916138 297.994995,365.641174 
	C297.449585,365.486298 296.779114,365.066223 296.062927,364.321320 
z"/>
<path fill="#3C52D9" opacity="1.000000" stroke="none" 
	d="
M311.214539,378.079468 
	C311.830994,378.220978 312.515747,378.680542 313.250427,379.461609 
	C312.627838,379.321289 311.955322,378.859406 311.214539,378.079468 
z"/>
<path fill="#3C52D9" opacity="1.000000" stroke="none" 
	d="
M270.090302,343.797485 
	C270.588928,343.874420 271.169342,344.207855 271.869507,344.769714 
	C271.383545,344.683411 270.777802,344.368683 270.090302,343.797485 
z"/>
<path fill="#3C52D9" opacity="1.000000" stroke="none" 
	d="
M282.199127,353.087158 
	C282.593872,353.047638 283.112213,353.278473 283.772095,353.761841 
	C283.383362,353.795441 282.853027,353.576477 282.199127,353.087158 
z"/>
<path fill="#3C52D9" opacity="1.000000" stroke="none" 
	d="
M278.224182,350.053772 
	C278.633362,350.006287 279.160828,350.244049 279.845337,350.731598 
	C279.449066,350.767242 278.895782,350.553131 278.224182,350.053772 
z"/>
<path fill="#3C52D9" opacity="1.000000" stroke="none" 
	d="
M229.224182,320.156128 
	C229.658798,320.045837 230.282074,320.217316 231.126648,320.633606 
	C230.702911,320.731567 230.057877,320.584717 229.224182,320.156128 
z"/>
<path fill="#3C52D9" opacity="1.000000" stroke="none" 
	d="
M267.208923,341.860260 
	C267.661316,341.825745 268.223419,342.117035 268.954834,342.676697 
	C268.522278,342.692047 267.920441,342.439056 267.208923,341.860260 
z"/>
<path fill="#3C52D9" opacity="1.000000" stroke="none" 
	d="
M227.199097,319.162354 
	C227.607346,319.072418 228.179733,319.245758 228.926682,319.668365 
	C228.521912,319.753632 227.942596,319.589630 227.199097,319.162354 
z"/>
<path fill="#3C52D9" opacity="1.000000" stroke="none" 
	d="
M233.265335,322.080017 
	C233.736938,321.955414 234.384094,322.143646 235.257355,322.594666 
	C234.802582,322.702576 234.121735,322.547699 233.265335,322.080017 
z"/>
<path fill="#3C52D9" opacity="1.000000" stroke="none" 
	d="
M250.228821,331.066345 
	C250.657166,330.986938 251.216629,331.196228 251.936249,331.666504 
	C251.517593,331.736694 250.938782,331.545837 250.228821,331.066345 
z"/>
<path fill="#3C52D9" opacity="1.000000" stroke="none" 
	d="
M217.197769,315.204010 
	C217.613358,315.077087 218.208084,315.205170 218.976501,315.589172 
	C218.559082,315.716431 217.968002,315.587708 217.197769,315.204010 
z"/>
<path fill="#3C52D9" opacity="1.000000" stroke="none" 
	d="
M272.130920,345.224609 
	C272.307556,345.158386 272.610565,345.308929 273.011292,345.703125 
	C272.825165,345.778259 272.541229,345.609802 272.130920,345.224609 
z"/>
<path fill="#3C52D9" opacity="1.000000" stroke="none" 
	d="
M232.151428,321.264465 
	C232.342651,321.159668 232.671692,321.263092 233.094696,321.616699 
	C232.888870,321.735443 232.589050,321.604095 232.151428,321.264465 
z"/>
<path fill="#3C52D9" opacity="1.000000" stroke="none" 
	d="
M246.283661,328.827820 
	C246.319626,328.625000 246.720383,328.620026 246.872650,328.750244 
	C246.765839,328.930511 246.506760,328.980591 246.283661,328.827820 
z"/>
<path fill="#3C52D9" opacity="1.000000" stroke="none" 
	d="
M249.137222,330.220978 
	C249.330688,330.127777 249.657959,330.252899 250.079712,330.631104 
	C249.873138,330.735901 249.572083,330.587585 249.137222,330.220978 
z"/>
<path fill="#3C52D9" opacity="1.000000" stroke="none" 
	d="
M306.158539,373.155151 
	C306.352600,373.090759 306.653809,373.260101 307.034241,373.684570 
	C306.830841,373.756104 306.548279,373.572479 306.158539,373.155151 
z"/>
<path fill="#3C52D9" opacity="1.000000" stroke="none" 
	d="
M260.163177,337.119690 
	C260.379120,337.029541 260.706787,337.184174 261.114624,337.606018 
	C260.888153,337.703644 260.581543,337.534058 260.163177,337.119690 
z"/>
<path fill="#3C52D9" opacity="1.000000" stroke="none" 
	d="
M295.138367,363.287170 
	C295.375275,363.090302 295.648132,363.236969 295.923218,363.756866 
	C295.703308,363.893036 295.452942,363.726562 295.138367,363.287170 
z"/>
<path fill="#3C52D9" opacity="1.000000" stroke="none" 
	d="
M293.227783,362.112305 
	C293.446228,362.007751 293.818237,362.182251 294.360687,362.625580 
	C294.147858,362.726746 293.764587,362.559052 293.227783,362.112305 
z"/>
<path fill="#3C52D9" opacity="1.000000" stroke="none" 
	d="
M265.136902,340.265259 
	C265.304199,340.195770 265.615631,340.339081 266.055359,340.711884 
	C265.882812,340.786926 265.581940,340.632477 265.136902,340.265259 
z"/>
<path fill="#3C52D9" opacity="1.000000" stroke="none" 
	d="
M286.190369,356.141968 
	C286.391449,356.051697 286.739471,356.221771 287.245667,356.643463 
	C287.048309,356.730835 286.692780,356.566559 286.190369,356.141968 
z"/>
<path fill="#3C52D9" opacity="1.000000" stroke="none" 
	d="
M285.147980,355.177704 
	C285.334656,355.114563 285.635773,355.281128 286.027863,355.696991 
	C285.833374,355.766663 285.547882,355.587036 285.147980,355.177704 
z"/>
<path fill="#3C52D9" opacity="1.000000" stroke="none" 
	d="
M281.157990,352.132141 
	C281.359222,352.060181 281.670837,352.229492 282.069458,352.657593 
	C281.860382,352.735413 281.564392,352.554413 281.157990,352.132141 
z"/>
<path fill="#3C52D9" opacity="1.000000" stroke="none" 
	d="
M280.139221,351.212646 
	C280.320160,351.146942 280.621765,351.301788 281.014984,351.703217 
	C280.824371,351.777588 280.542145,351.605347 280.139221,351.212646 
z"/>
<path fill="#66ADF0" opacity="1.000000" stroke="none" 
	d="
M265.305084,11.868025 
	C264.997467,11.783104 264.984467,11.565355 264.943359,11.018784 
	C265.739807,10.147992 266.564392,9.606022 267.702057,9.061251 
	C267.209991,9.950699 266.404877,10.842948 265.305084,11.868025 
z"/>
<path fill="#E1EFF8" opacity="1.000000" stroke="none" 
	d="
M490.370605,20.005169 
	C494.545410,17.688828 498.941772,14.970423 503.695648,13.226793 
	C506.449799,12.216638 510.884857,11.451618 512.621033,12.901786 
	C516.298157,15.973154 519.177063,20.322283 521.420044,24.646969 
	C522.474548,26.680149 521.301392,29.868671 521.042175,34.087524 
	C523.626160,32.173965 525.093262,31.300817 526.302185,30.155193 
	C531.432739,25.293188 535.909241,19.459642 541.730103,15.686030 
	C547.620605,11.867261 554.631775,9.138839 561.516907,7.775015 
	C564.722961,7.139958 568.925598,10.627259 572.436218,12.660663 
	C577.195435,15.417286 581.223755,13.473677 585.674561,11.170470 
	C586.135925,12.009318 586.764954,13.405582 586.326782,13.962895 
	C583.706970,17.295422 583.969971,27.120939 587.353210,29.468134 
	C589.694763,31.092598 590.056885,32.452255 588.706970,34.737354 
	C588.318665,35.394653 588.022400,36.449211 588.274780,37.088436 
	C590.533936,42.811371 587.297363,44.203331 582.555847,45.427574 
	C577.346313,46.772671 572.820679,49.083519 568.585815,53.240391 
	C564.276001,57.470844 557.733582,60.156662 551.703186,61.702862 
	C545.450134,63.306160 538.941711,61.961929 533.312317,57.699829 
	C528.079346,53.737808 522.313660,51.104347 515.304382,52.919361 
	C511.271423,53.963676 508.646454,52.128906 507.785034,47.841652 
	C507.004578,43.957611 505.671814,40.171764 505.069855,36.267498 
	C504.050293,29.654854 497.481140,21.956692 490.370605,20.005169 
z"/>
<path fill="#DFEFFB" opacity="1.000000" stroke="none" 
	d="
M433.056702,43.654518 
	C432.997223,43.997253 432.498596,43.998615 431.874695,43.999313 
	C430.501770,44.001244 429.752716,44.002472 429.149719,43.707909 
	C430.197540,41.949989 431.099274,40.487854 432.001007,39.025719 
	C432.001007,39.025715 431.994995,38.996254 432.353271,38.964714 
	C435.474609,35.627094 438.237610,32.321011 441.000610,29.014923 
	C441.000610,29.014915 440.997864,29.001432 441.006409,29.000977 
	C441.973816,28.565727 442.932678,28.130936 444.308594,27.306690 
	C445.492493,25.619070 446.259430,24.320900 447.026337,23.022730 
	C447.026337,23.022730 447.513062,23.009483 448.100769,22.966932 
	C449.790985,22.614462 450.893524,22.304541 451.996033,21.994621 
	C453.873138,23.843025 455.750244,25.691431 458.638855,28.535835 
	C455.023041,29.440802 451.941193,30.567007 448.776215,30.898048 
	C445.970093,31.191557 444.164459,31.556288 443.810974,34.949280 
	C443.669281,36.309151 441.857727,37.705471 440.513733,38.683102 
	C438.167145,40.389969 435.594238,41.785667 433.056702,43.654518 
z"/>
<path fill="#C8E6F3" opacity="1.000000" stroke="none" 
	d="
M452.209656,21.880211 
	C450.893524,22.304541 449.790985,22.614462 448.343994,22.956589 
	C451.099396,19.667953 454.199280,16.347115 457.670807,13.034110 
	C456.399628,15.465398 454.756805,17.888851 453.057007,20.655975 
	C452.881378,21.310457 452.689117,21.565842 452.209656,21.880211 
z"/>
<path fill="#66ADF0" opacity="1.000000" stroke="none" 
	d="
M393.683289,51.857513 
	C393.180969,53.322437 392.582825,55.545162 391.504089,55.809948 
	C387.200317,56.866333 382.697906,58.081360 378.360596,57.804283 
	C372.002197,57.398087 365.623230,56.149361 359.431366,54.563381 
	C349.200043,51.942745 338.769592,49.596474 329.054352,45.599945 
	C318.523743,41.268021 307.634491,44.409306 297.105927,42.126884 
	C292.145782,41.051609 286.891876,41.342346 281.773010,40.986225 
	C271.760559,40.289669 260.268524,28.503101 259.919434,18.984669 
	C259.792847,15.532889 260.779144,13.586199 264.621887,13.047613 
	C265.965485,13.439322 266.923645,13.880055 267.942139,14.661142 
	C270.218262,17.013529 272.120056,19.982828 274.716461,20.834597 
	C279.827637,22.511328 285.292206,23.275860 290.669739,23.934587 
	C297.705719,24.796465 304.796906,25.217335 311.869507,25.761175 
	C313.163544,25.860680 314.634216,25.996004 315.764374,25.511097 
	C322.532318,22.607178 329.072083,24.679964 335.715210,26.022619 
	C345.865845,28.074173 356.045746,29.997448 366.255402,31.725689 
	C368.095886,32.037235 370.568512,31.745226 372.013763,30.707481 
	C377.678406,26.640066 383.975189,28.215466 390.110016,27.915047 
	C392.506805,27.797678 394.857117,26.731424 397.614288,26.048977 
	C398.948364,28.384407 400.515594,30.735683 400.643188,33.162640 
	C400.739746,34.999870 399.295929,37.189075 397.967834,38.730839 
	C397.141418,39.690216 394.827545,39.330605 393.930695,40.274811 
	C392.091827,42.210835 390.054047,44.468304 389.507080,46.909161 
	C389.226746,48.160168 391.982758,50.091568 393.683289,51.857513 
z"/>
<path fill="#C8E6F3" opacity="1.000000" stroke="none" 
	d="
M460.361450,12.983877 
	C461.621948,10.023981 463.167816,6.963910 467.653748,7.025799 
	C465.602539,9.018561 463.165253,11.000576 460.361450,12.983877 
z"/>
<path fill="#C1DDF2" opacity="1.000000" stroke="none" 
	d="
M431.662476,39.052689 
	C431.099274,40.487854 430.197540,41.949989 428.934937,43.819656 
	C428.306244,44.424648 428.113342,44.678989 427.700867,45.135971 
	C426.582397,46.506496 425.758514,47.731266 424.934631,48.956032 
	C423.222656,49.953999 421.510681,50.951973 419.471558,52.012268 
	C419.111877,51.895550 419.079315,51.716511 419.010498,51.266861 
	C420.915344,48.871365 422.856354,46.746483 424.964691,44.323429 
	C427.195984,42.376724 429.259979,40.728195 431.662476,39.052689 
z"/>
<path fill="#C1DDF2" opacity="1.000000" stroke="none" 
	d="
M440.640381,29.011868 
	C438.237610,32.321011 435.474609,35.627094 432.368164,38.966652 
	C432.030060,38.559406 432.035400,38.118690 432.075562,37.348919 
	C434.833679,34.349510 437.556915,31.679159 440.640381,29.011868 
z"/>
<path fill="#C8E6F3" opacity="1.000000" stroke="none" 
	d="
M446.726074,23.160847 
	C446.259430,24.320900 445.492493,25.619070 444.375153,26.968151 
	C444.825073,25.779032 445.625427,24.539000 446.726074,23.160847 
z"/>
<path fill="#7CBAF0" opacity="1.000000" stroke="none" 
	d="
M220.728821,66.120346 
	C220.776184,66.513519 220.583664,67.086212 220.111679,67.801308 
	C220.051117,67.395752 220.270035,66.847809 220.728821,66.120346 
z"/>
<path fill="#E7F1F8" opacity="1.000000" stroke="none" 
	d="
M427.995483,44.990211 
	C428.113342,44.678989 428.306244,44.424648 428.788879,44.115444 
	C429.752716,44.002472 430.501770,44.001244 431.625427,44.000080 
	C430.909332,44.996605 429.818695,45.993061 428.364563,46.660244 
	C427.999237,45.884048 427.997345,45.437130 427.995483,44.990211 
z"/>
<path fill="#DFEFFB" opacity="1.000000" stroke="none" 
	d="
M427.700867,45.135971 
	C427.997345,45.437130 427.999237,45.884048 428.001770,46.666088 
	C427.198303,47.644413 426.394165,48.287617 425.262329,48.943428 
	C425.758514,47.731266 426.582397,46.506496 427.700867,45.135971 
z"/>
</svg>